<svg width="540" height="381" viewBox="0 0 540 381" fill="none" xmlns="http://www.w3.org/2000/svg">
	<path d="M525.381 255.652C525.41 257.965 524.98 260.261 524.115 262.407C523.25 264.553 521.967 266.505 520.341 268.151C518.716 269.797 516.779 271.104 514.645 271.995C512.51 272.887 510.219 273.346 507.906 273.345H383.093C384.906 276.66 385.597 280.474 385.061 284.215C384.526 287.955 382.793 291.422 380.122 294.095C379.102 295.11 377.964 295.999 376.733 296.743H399.79C409.434 296.743 417.597 304.356 417.721 313.99C417.749 316.303 417.318 318.599 416.453 320.745C415.587 322.89 414.305 324.843 412.679 326.489C411.054 328.135 409.118 329.443 406.984 330.335C404.849 331.228 402.559 331.689 400.246 331.69H285.636C281.811 331.689 278.092 330.434 275.049 328.116C272.006 325.799 269.808 322.547 268.791 318.86C267.773 315.173 267.994 311.254 269.418 307.704C270.842 304.154 273.391 301.17 276.675 299.208H208.018C198.374 299.208 190.211 291.595 190.087 281.961C190.047 278.841 190.842 275.768 192.392 273.06C193.941 270.352 196.186 268.108 198.896 266.561C196.057 265.088 193.678 262.863 192.017 260.13C190.357 257.396 189.479 254.259 189.48 251.061V229.661C189.477 226.928 190.116 224.233 191.346 221.793C192.576 219.352 194.362 217.235 196.561 215.612H73.1808C63.5458 215.612 55.3928 208.018 55.2498 198.393C55.2155 196.076 55.6423 193.776 56.5054 191.626C57.3685 189.476 58.6507 187.518 60.2773 185.869C61.9039 184.219 63.8425 182.909 65.9802 182.015C68.1178 181.121 70.4119 180.662 72.7289 180.663H81.4488C85.0293 180.663 88.4631 179.241 90.9948 176.709C93.5265 174.177 94.9488 170.743 94.9488 167.163V167.153C94.9488 163.573 93.5265 160.139 90.9948 157.607C88.4631 155.075 85.0293 153.653 81.4488 153.653H23.4039C18.7704 153.653 14.3267 151.812 11.0503 148.536C7.77399 145.26 5.93335 140.816 5.93335 136.182C5.93335 131.549 7.77399 127.105 11.0503 123.829C14.3267 120.553 18.7704 118.712 23.4039 118.712H107.329C111.962 118.713 116.406 116.874 119.684 113.598C122.961 110.323 124.803 105.879 124.804 101.246C124.805 96.6125 122.966 92.1684 119.69 88.8912C116.415 85.614 111.971 83.7722 107.338 83.771H83.3669C73.7129 83.771 65.5498 76.139 65.4458 66.486C65.4207 64.1755 65.8542 61.883 66.7211 59.7412C67.5881 57.5994 68.8713 55.6509 70.4964 54.0084C72.1216 52.3659 74.0565 51.0622 76.189 50.1726C78.3215 49.283 80.6092 48.8253 82.9198 48.826H242.32C251.708 48.826 259.767 56.05 260.22 65.437C260.374 68.5341 259.702 71.6165 258.274 74.369H463.853C468.486 74.369 472.93 76.2096 476.206 79.486C479.483 82.7623 481.323 87.206 481.323 91.8395C481.323 96.473 479.483 100.917 476.206 104.193C472.93 107.469 468.486 109.31 463.853 109.31H387.706C387.702 113.069 386.208 116.674 383.55 119.333C380.892 121.991 377.288 123.487 373.529 123.492H287.696C290.239 125.893 292.003 129.003 292.759 132.419C293.515 135.834 293.227 139.398 291.934 142.648C290.642 145.898 288.402 148.685 285.507 150.648C282.612 152.611 279.194 153.66 275.696 153.658H251.696C250.751 153.657 249.815 153.841 248.942 154.202C248.069 154.562 247.275 155.091 246.606 155.759C245.938 156.426 245.407 157.219 245.045 158.091C244.683 158.964 244.496 159.899 244.496 160.844V160.854C244.496 161.799 244.683 162.734 245.045 163.607C245.407 164.479 245.938 165.272 246.606 165.939C247.275 166.607 248.069 167.136 248.942 167.496C249.815 167.857 250.751 168.041 251.696 168.04H446.51C451.143 168.04 455.587 169.881 458.863 173.157C462.14 176.433 463.98 180.877 463.98 185.51C463.98 190.144 462.14 194.588 458.863 197.864C455.587 201.14 451.143 202.981 446.51 202.981H396.129C398.684 204.544 400.794 206.737 402.259 209.35C403.723 211.963 404.492 214.908 404.492 217.903V222.886C404.493 226.092 403.612 229.236 401.944 231.974C400.277 234.711 397.887 236.937 395.038 238.406H507.45C517.094 238.406 525.257 246.019 525.381 255.653" fill="#FBF8FF" />
	<path d="M490.447 149.072V170.588" stroke="#35008B" stroke-width="2" stroke-miterlimit="10" stroke-linecap="round" />
	<path d="M479.688 159.83H501.204" stroke="#35008B" stroke-width="2" stroke-miterlimit="10" stroke-linecap="round" />
	<path d="M141.045 7.272V26.276" stroke="#35008B" stroke-width="2" stroke-miterlimit="10" stroke-linecap="round" />
	<path d="M131.543 16.774H150.547" stroke="#35008B" stroke-width="2" stroke-miterlimit="10" stroke-linecap="round" />
	<path d="M515.735 37.517C515.735 40.0178 514.993 42.4624 513.604 44.5417C512.214 46.621 510.239 48.2416 507.929 49.1986C505.618 50.1556 503.076 50.4059 500.623 49.918C498.171 49.43 495.918 48.2257 494.15 46.4573C492.381 44.6889 491.177 42.4359 490.689 39.9831C490.202 37.5303 490.452 34.988 491.409 32.6776C492.366 30.3673 493.987 28.3926 496.067 27.0034C498.146 25.6142 500.591 24.8728 503.092 24.873C504.752 24.873 506.396 25.2 507.93 25.8355C509.464 26.4709 510.858 27.4023 512.032 28.5764C513.206 29.7505 514.137 31.1444 514.772 32.6784C515.408 34.2124 515.735 35.8566 515.735 37.517Z" stroke="#35008B" stroke-width="2" stroke-miterlimit="10" />
	<path d="M26.8085 243.978C26.8095 246.479 26.0688 248.924 24.68 251.004C23.2912 253.084 21.3168 254.705 19.0064 255.663C16.696 256.621 14.1535 256.872 11.7005 256.385C9.24744 255.897 6.99402 254.693 5.22527 252.925C3.45651 251.157 2.25187 248.904 1.76371 246.451C1.27555 243.998 1.52579 241.455 2.48279 239.145C3.43979 236.834 5.06055 234.859 7.14009 233.47C9.21962 232.08 11.6645 231.339 14.1655 231.339C17.5179 231.339 20.7329 232.671 23.1038 235.041C25.4746 237.411 26.8072 240.626 26.8085 243.978Z" stroke="#35008B" stroke-width="2" stroke-miterlimit="10" />
	<path d="M538.48 217.542C538.479 218.752 538.12 219.935 537.448 220.942C536.775 221.948 535.819 222.732 534.701 223.195C533.583 223.658 532.352 223.78 531.165 223.543C529.978 223.307 528.888 222.724 528.032 221.868C527.176 221.013 526.593 219.922 526.357 218.735C526.121 217.548 526.242 216.318 526.705 215.199C527.168 214.081 527.953 213.125 528.959 212.453C529.965 211.78 531.148 211.421 532.359 211.421C533.982 211.421 535.539 212.066 536.687 213.214C537.835 214.362 538.48 215.919 538.48 217.542Z" stroke="#35008B" stroke-width="2" stroke-miterlimit="10" />
	<path d="M71.0465 192.927C71.0463 194.137 70.6873 195.32 70.0147 196.327C69.3422 197.333 68.3863 198.117 67.2681 198.58C66.1498 199.043 64.9194 199.165 63.7323 198.928C62.5453 198.692 61.4549 198.109 60.599 197.253C59.7432 196.398 59.1603 195.307 58.9242 194.12C58.688 192.933 58.8091 191.703 59.2722 190.584C59.7353 189.466 60.5195 188.51 61.5258 187.838C62.5321 187.165 63.7152 186.806 64.9255 186.806C66.5489 186.806 68.1058 187.451 69.2537 188.599C70.4016 189.747 71.0465 191.304 71.0465 192.927Z" stroke="#35008B" stroke-width="2" stroke-miterlimit="10" />
	<path d="M276.814 380.579C352.305 380.579 413.502 375.84 413.502 369.995C413.502 364.15 352.305 359.411 276.814 359.411C201.324 359.411 140.126 364.15 140.126 369.995C140.126 375.84 201.324 380.579 276.814 380.579Z" fill="#EDE2FD" />
	<path d="M259.84 1.777L259.858 0H259.124L258.599 0.514L259.84 1.777ZM332.004 2.551L333.27 1.31L332.757 0.785L332.021 0.777L332.004 2.551ZM208.265 52.258L207.024 50.99L206.499 51.504L206.491 52.239L208.265 52.258ZM207.491 124.422L205.714 124.4L205.706 125.135L206.22 125.66L207.491 124.422ZM257.972 176L256.704 177.241L257.218 177.766L257.953 177.774L257.972 176ZM330.136 176.774L330.116 178.548L330.85 178.556L331.375 178.042L330.136 176.774ZM381.714 126.289L382.954 127.557L383.479 127.043L383.488 126.308L381.714 126.289ZM382.487 54.125L384.261 54.144L384.268 53.409L383.755 52.884L382.487 54.125ZM324.684 15.009L325.938 13.755L325.418 13.235H324.684V15.009ZM263.678 15.009V13.235H262.943L262.423 13.755L263.678 15.009ZM367.822 58.146H369.596V57.411L369.076 56.891L367.822 58.146ZM367.822 119.152L369.076 120.406L369.596 119.886V119.151L367.822 119.152ZM324.684 162.29V164.064H325.418L325.938 163.544L324.684 162.29ZM263.678 162.29L262.424 163.544L262.944 164.064H263.679L263.678 162.29ZM220.541 119.152H218.767V119.887L219.286 120.407L220.541 119.152ZM220.541 58.146L219.286 56.891L218.767 57.411V58.146H220.541ZM259.821 3.546L331.985 4.32L332.022 0.772L259.858 0L259.821 3.546ZM209.506 53.526L261.081 3.046L258.599 0.51L207.024 50.99L209.506 53.526ZM209.265 124.441L210.039 52.277L206.491 52.239L205.714 124.4L209.265 124.441ZM259.239 174.756L208.759 123.181L206.224 125.663L256.704 177.238L259.239 174.756ZM330.155 174.997L257.99 174.223L257.952 177.771L330.116 178.545L330.155 174.997ZM380.468 125.023L328.894 175.5L331.376 178.036L382.95 127.555L380.468 125.023ZM380.714 54.107L379.941 126.271L383.489 126.309L384.262 54.145L380.714 54.107ZM330.735 3.792L381.214 55.366L383.751 52.884L333.27 1.31L330.735 3.792ZM324.684 13.235H263.678L263.679 16.783H324.684V13.235ZM369.076 56.891L325.939 13.754L323.431 16.263L366.568 59.4L369.076 56.891ZM369.596 119.151V58.146H366.048V119.152L369.596 119.151ZM325.939 163.544L369.076 120.406L366.568 117.897L323.431 161.035L325.939 163.544ZM263.679 164.064H324.684V160.516H263.679V164.064ZM219.286 120.407L262.424 163.544L264.933 161.036L221.795 117.9L219.286 120.407ZM218.767 58.146V119.152L222.314 119.153V58.146H218.767ZM262.424 13.754L219.286 56.891L221.795 59.4L264.933 16.262L262.424 13.754Z" fill="#35008B" />
	<path d="M300.626 175.626V325.112H288.208V175.626" fill="#EADFFC" />
	<path d="M300.626 175.626V325.112H288.208V175.626" stroke="#35008B" stroke-width="2" />
	<path d="M279.338 312.694H171.126V325.112H279.338V312.694Z" fill="#EADFFC" stroke="#35008B" stroke-width="2" />
	<path d="M207.535 255.584L202.101 273.111H250.847L244.49 255.584H207.535Z" fill="#EADFFC" />
	<path d="M198.546 285.779L189.816 311.054H262.382L253.94 283.887H198.546V285.779Z" fill="white" />
	<path d="M220.242 207.487H230.635L242.484 243.767H210.72L220.242 207.487Z" fill="white" />
	<path d="M210.17 244.81L208.47 244.292L207.77 246.584H210.17V244.81ZM221.528 207.557V205.783H220.214L219.831 207.039L221.528 207.557ZM241.54 244.81V246.583H243.94L243.24 244.291L241.54 244.81ZM230.182 207.557L231.882 207.039L231.495 205.783H230.182V207.557ZM201.516 273.193L199.816 272.675L199.116 274.967H201.516V273.193ZM206.925 255.453V253.683H205.607L205.224 254.939L206.925 255.453ZM250.195 273.193V274.967H252.595L251.895 272.675L250.195 273.193ZM244.786 255.453L246.486 254.935L246.103 253.679H244.789L244.786 255.453ZM198.27 283.837V282.063H196.956L196.573 283.319L198.27 283.837ZM189.752 311.777L188.052 311.259L187.352 313.551H189.752V311.777ZM253.44 283.837L255.14 283.319L254.757 282.063H253.443L253.44 283.837ZM261.958 311.777V313.551H264.358L263.658 311.259L261.958 311.777ZM211.867 245.328L223.225 208.075L219.831 207.039L208.473 244.292L211.867 245.328ZM241.54 243.036H210.17V246.584L241.54 246.583V243.036ZM228.485 208.075L239.843 245.328L243.237 244.292L231.879 207.039L228.485 208.075ZM230.185 205.783H221.528V209.331H230.182L230.185 205.783ZM203.213 273.711L208.621 255.971L205.227 254.935L199.819 272.675L203.213 273.711ZM250.194 271.419H201.516V274.967H250.195L250.194 271.419ZM243.089 255.971L248.497 273.711L251.891 272.675L246.483 254.935L243.089 255.971ZM206.925 257.227H244.786V253.683H206.925V257.227ZM196.573 283.319L188.055 311.259L191.449 312.295L199.967 284.355L196.573 283.319ZM253.439 282.063H198.27V285.611H253.439V282.063ZM263.654 311.263L255.136 283.323L251.742 284.359L260.26 312.299L263.654 311.263ZM189.754 313.555H261.96V310.003H189.752L189.754 313.555Z" fill="#35008B" />
	<path d="M263.146 16.906H323.691L366.354 59.568V118.839L323.691 160.101H263.146L222.39 118.839V59.569L263.146 16.906Z" fill="#EADFFC" />
	<path d="M291.746 123.477C293.7 123.477 295.284 121.893 295.284 119.939C295.284 117.985 293.7 116.401 291.746 116.401C289.792 116.401 288.208 117.985 288.208 119.939C288.208 121.893 289.792 123.477 291.746 123.477Z" fill="#35008B" />
	<path d="M291.747 61.555H291.746C289.792 61.555 288.208 63.139 288.208 65.093V105.786C288.208 107.74 289.792 109.324 291.746 109.324H291.747C293.701 109.324 295.285 107.74 295.285 105.786V65.093C295.285 63.139 293.701 61.555 291.747 61.555Z" fill="#35008B" />
</svg>
