<svg width="1047" height="227" viewBox="0 0 1047 227" fill="none" xmlns="http://www.w3.org/2000/svg">
<rect x="110.5" y="59.5" width="25" height="5" rx="2.5" fill="url(#paint0_linear_0_1)" stroke="#60635F"/>
<rect x="110.5" y="70.5" width="25" height="5" rx="2.5" fill="url(#paint1_linear_0_1)" stroke="#60635F"/>
<rect x="110.5" y="81.5" width="25" height="5" rx="2.5" fill="url(#paint2_linear_0_1)" stroke="#60635F"/>
<circle cx="60" cy="73" r="5.5" fill="url(#paint3_linear_0_1)" stroke="#60635F"/>
<circle cx="133" cy="155" r="5.5" fill="url(#paint4_linear_0_1)" stroke="#60635F"/>
<path d="M2.44063 139.691C-2.39364 98.9187 6.18651 62.5761 11.5 50.5C13.7095 45.4785 14.4692 43.6317 14.6836 43.046C14.3844 43.5165 14.9477 42.3246 14.6836 43.046C14.7462 42.9476 14.8465 42.7765 15 42.5C18.3382 36.4856 20.4776 34.183 25 29C29.361 24.0019 32.2289 21.5267 37.5 17.5C44.1794 12.3974 48.2303 9.70641 56 6.50001C64.8884 2.83195 70.4452 2.07918 80 1.00001C94.2668 -0.61137 116.303 3.11839 118.347 3.47318C118.46 3.49277 118.553 3.51326 118.664 3.54196C119.502 3.75901 123.602 4.8481 132 7.49997C139.932 10.0049 143.452 11.7891 150.441 16.9563C150.48 16.985 150.514 17.0112 150.552 17.0412C151.486 17.7805 164.713 28.3379 170.5 37.5C174.396 42.4968 176.47 46.7746 179.5 51L182.002 55.6186C183.806 58.9501 181.394 63 177.605 63H147.987C145.225 63 142.987 60.7614 142.987 58V53C142.987 50.2386 140.748 48 137.987 48H118.5H96H51.5C48.7386 48 46.5 50.2386 46.5 53V94.5C46.5 97.2614 48.7386 99.5 51.5 99.5H96H137.987C140.748 99.5 142.987 97.2614 142.987 94.5V89.2103C142.987 86.3681 145.377 84.1005 148.217 84.1965C190.603 85.6282 186.111 81.4356 186.002 89.7063C185.999 89.8958 186.01 90.0859 186.031 90.2742C186.255 92.2714 187.631 104.735 188 113C188.42 122.393 188.015 136.984 188 137.487L188 137.516C187.99 138.016 187.724 150.312 186 158L185.885 158.512C184.278 165.687 183.252 170.263 180 177C173.408 190.655 160.164 201.207 158.643 202.389C158.545 202.466 158.448 202.534 158.343 202.601L150 208L141.811 213.299C141.604 213.433 141.387 213.551 141.163 213.653L130.826 218.352C130.609 218.451 130.385 218.533 130.157 218.6L118.601 221.971C118.534 221.99 118.473 222.007 118.405 222.023C117.276 222.298 106.302 224.94 98.9865 225.5C93.151 225.947 85 225.5 84 225.5C83 225.5 72.1656 224.362 65 222C59.9348 220.331 57.2556 218.914 52.5 216.5C46.4084 213.408 43.1354 211.361 37.5 207.5C34.8197 205.664 30.9332 202.712 30.1432 202.109C30.046 202.035 29.9542 201.959 29.8628 201.878L25.5 198L21.1198 193.62C21.04 193.54 20.9646 193.459 20.8904 193.374C20.2612 192.652 17.0637 188.978 15 186.5C12.4284 183.412 9.45616 178.21 8.6885 176.839C8.56094 176.611 8.41983 176.396 8.26024 176.19L6.22605 173.557C3.68644 170.271 6.02903 165.5 10.1825 165.5H41.5C44.2614 165.5 46.5 167.739 46.5 170.5V176C46.5 178.761 48.7386 181 51.5 181H96H137.987C140.748 181 142.987 178.761 142.987 176V133.5C142.987 130.739 140.748 128.5 137.987 128.5H102.5H51.5C48.7386 128.5 46.5 130.739 46.5 133.5V139C46.5 141.761 44.2614 144 41.5 144H25H7.3437C4.85232 144 2.73397 142.165 2.44063 139.691Z" fill="url(#paint5_linear_0_1)"/>
<path d="M11.5 50.5C6.18651 62.5761 -2.39364 98.9187 2.44063 139.691C2.73397 142.165 4.85232 144 7.3437 144H25H41.5C44.2614 144 46.5 141.761 46.5 139V133.5C46.5 130.739 48.7386 128.5 51.5 128.5H102.5H137.987C140.748 128.5 142.987 130.739 142.987 133.5V176C142.987 178.761 140.748 181 137.987 181H96H51.5C48.7386 181 46.5 178.761 46.5 176V170.5C46.5 167.739 44.2614 165.5 41.5 165.5H10.1825C6.02903 165.5 3.68644 170.271 6.22605 173.557L8.26024 176.19C8.41983 176.396 8.56094 176.611 8.6885 176.839C9.45616 178.21 12.4284 183.412 15 186.5C17.0637 188.978 20.2612 192.652 20.8904 193.374C20.9646 193.459 21.04 193.54 21.1198 193.62L25.5 198L29.8628 201.878C29.9542 201.959 30.046 202.035 30.1432 202.109C30.9332 202.712 34.8197 205.664 37.5 207.5C43.1354 211.361 46.4084 213.408 52.5 216.5C57.2556 218.914 59.9348 220.331 65 222C72.1656 224.362 83 225.5 84 225.5C85 225.5 93.151 225.947 98.9865 225.5C106.302 224.94 117.276 222.298 118.405 222.023C118.473 222.007 118.534 221.99 118.601 221.971L130.157 218.6C130.385 218.533 130.609 218.451 130.826 218.352L141.163 213.653C141.387 213.551 141.604 213.433 141.811 213.299L150 208L158.343 202.601C158.448 202.534 158.545 202.466 158.643 202.389C160.164 201.207 173.408 190.655 180 177C183.329 170.104 184.325 165.472 186 158C187.724 150.312 187.99 138.016 188 137.516C188 137.5 188 137.503 188 137.487C188.015 136.984 188.42 122.393 188 113C187.631 104.735 186.255 92.2714 186.031 90.2742C186.01 90.0859 185.999 89.8958 186.002 89.7063C186.111 81.4356 190.603 85.6281 148.217 84.1965C145.377 84.1005 142.987 86.3681 142.987 89.2103V94.5C142.987 97.2614 140.748 99.5 137.987 99.5H96H51.5C48.7386 99.5 46.5 97.2614 46.5 94.5V53C46.5 50.2386 48.7386 48 51.5 48H96H118.5H137.987C140.748 48 142.987 50.2386 142.987 53V58C142.987 60.7614 145.225 63 147.987 63H177.605C181.394 63 183.806 58.9501 182.002 55.6186L179.5 51C176.47 46.7745 174.396 42.4968 170.5 37.5C164.713 28.3379 151.486 17.7805 150.552 17.0412C150.514 17.0112 150.48 16.985 150.441 16.9563C143.452 11.7891 139.932 10.0049 132 7.49997C123.602 4.8481 119.502 3.75901 118.664 3.54196C118.553 3.51326 118.46 3.49277 118.347 3.47318C116.303 3.11839 94.2668 -0.61137 80 1.00001C70.4452 2.07918 64.8884 2.83195 56 6.50001C48.2303 9.70641 44.1794 12.3974 37.5 17.5C32.2289 21.5267 29.361 24.0019 25 29C20.4776 34.183 18.3382 36.4856 15 42.5C13.5168 45.1723 17 38 11.5 50.5Z" stroke="#1B1B1B"/>
<rect x="54.5" y="141.5" width="25" height="5" rx="2.5" fill="url(#paint6_linear_0_1)" stroke="#60635F"/>
<rect x="54.5" y="152.5" width="25" height="5" rx="2.5" fill="url(#paint7_linear_0_1)" stroke="#60635F"/>
<rect x="54.5" y="163.5" width="25" height="5" rx="2.5" fill="url(#paint8_linear_0_1)" stroke="#60635F"/>
<path d="M261.721 23.9277L261.199 95.6758C261.18 98.3424 261.749 100.263 262.907 101.438C264.232 102.615 267.061 103.219 271.394 103.25L289.894 103.385L289.721 127.134L257.972 126.903C248.472 126.834 240.813 125.778 234.994 123.736C229.342 121.695 225.118 118.164 222.321 113.143C219.692 107.957 217.982 102.445 217.191 96.6055C216.567 90.7675 216.291 82.9319 216.362 73.0988C216.435 63.0991 216.824 55.5184 217.528 50.3567C218.399 45.1963 220.184 40.3758 222.883 35.8953C225.749 31.4161 230.022 28.2804 235.702 26.4884C241.549 24.6976 249.222 23.8367 258.722 23.9059L261.721 23.9277ZM299.894 103.458L302.893 103.48C310.06 103.532 315.559 103.738 319.389 104.1C323.388 104.295 327.216 105.073 330.873 106.433C334.531 107.627 337.02 109.061 338.342 110.738C339.829 112.415 341.141 115.342 342.278 119.517C343.582 123.526 344.3 127.865 344.433 132.533C344.566 137.2 344.601 143.868 344.537 152.534C344.474 161.2 344.341 168.116 344.136 173.282C343.933 178.28 343.148 183.108 341.781 187.765C340.582 192.256 339.225 195.413 337.712 197.235C336.365 199.059 333.853 200.707 330.176 202.181C326.499 203.487 322.66 204.293 318.658 204.597C314.823 204.736 309.323 204.779 302.156 204.727L299.157 204.705L299.894 103.458ZM219.314 148.372L250.814 148.602C253.147 148.619 254.561 148.962 255.056 149.633C255.551 150.303 255.791 151.721 255.775 153.888L255.633 173.387C255.614 176.054 255.933 177.973 256.591 179.144C257.417 180.151 259.33 180.664 262.33 180.686L289.33 180.883L289.157 204.632L252.408 204.365C240.241 204.276 231.007 202.126 224.704 197.913C218.568 193.701 215.537 186.429 215.613 176.096L215.776 153.597C215.802 150.097 216.981 148.355 219.314 148.372ZM271.723 23.7505L303.472 23.9816C315.639 24.0702 324.79 26.2202 330.926 30.4317C337.229 34.6443 340.343 41.9172 340.267 52.2503L340.104 74.7497C340.078 78.2496 338.899 79.991 336.565 79.974L305.066 79.7447C302.733 79.7277 301.319 79.3841 300.824 78.7138C300.329 78.0435 300.089 76.6251 300.105 74.4585L300.247 54.959C300.266 52.2924 299.863 50.4561 299.037 49.45C298.379 48.2785 296.549 47.6819 293.55 47.66L271.55 47.4999L271.723 23.7505ZM435.423 203.697C435.416 204.697 434.911 205.36 433.909 205.686L414.909 205.548C402.743 205.459 393.927 202.978 388.463 198.105C382.998 193.232 380.31 184.712 380.399 172.546L380.93 99.5475L368.18 99.4547C364.014 99.4244 361.949 96.9093 361.985 91.9094L362.071 80.1597L381.07 80.298L381.476 24.5495L396.726 24.6605C404.059 24.7139 409.545 26.5872 413.185 30.2805C416.992 33.9749 418.874 38.6554 418.833 44.322L417.865 177.318C417.82 183.485 421.297 186.594 428.297 186.645L433.547 186.683C434.88 186.693 435.543 187.281 435.534 188.447L435.423 203.697ZM444.068 80.7566L443.983 92.5063C443.947 97.5062 441.845 99.991 437.679 99.9606L424.679 99.866L424.819 80.6165L444.068 80.7566ZM459.965 80.8723L488.464 81.0798C491.13 81.0992 493.29 82.0316 494.944 83.8771C496.597 85.7225 497.413 88.1451 497.391 91.1451L496.745 179.893C496.725 182.559 497.295 184.48 498.453 185.655C499.778 186.832 502.607 187.436 506.94 187.467L521.439 187.573L521.303 206.322L486.304 206.067C468.138 205.935 459.12 196.953 459.249 179.12L459.965 80.8723ZM576.314 204.973C576.306 206.139 575.885 206.72 575.052 206.713L549.802 206.53C542.469 206.476 536.899 204.686 533.091 201.158C529.451 197.465 527.652 192.785 527.693 187.118L528.463 81.371L556.962 81.5785C559.629 81.5979 561.789 82.5303 563.442 84.3757C565.095 86.2211 565.911 88.6438 565.889 91.6437L565.257 178.391C565.22 183.558 566.282 186.482 568.444 187.165C569.607 187.673 571.188 187.935 573.188 187.949L574.438 187.958C575.771 187.968 576.434 188.556 576.425 189.723L576.314 204.973ZM633.763 207.141L618.513 207.03C611.18 206.976 605.61 205.186 601.802 201.658C598.162 197.965 596.363 193.285 596.404 187.618L597.439 45.3722C597.481 39.7056 599.347 35.1358 603.039 31.6626C606.899 28.0239 612.496 26.2312 619.829 26.2846L635.079 26.3956L633.763 207.141ZM642.173 82.1988L666.422 82.3753C672.755 82.4214 677.919 82.7923 681.914 83.4881C685.911 84.0172 689.401 85.2926 692.387 87.3144C695.372 89.3362 697.606 91.6025 699.087 94.1134C700.57 96.4576 701.792 100.3 702.754 105.64C703.866 113.149 704.372 123.653 704.274 137.152C704.176 150.652 704.026 159.818 703.824 164.65C703.623 169.315 703.254 174.313 702.715 179.642C702.343 184.973 701.564 188.884 700.379 191.375C699.361 193.868 697.926 196.441 696.073 199.094C694.388 201.582 692.126 203.316 689.285 204.295C683.103 206.417 675.178 207.442 665.512 207.372L641.263 207.195L641.399 188.446L654.899 188.544C659.232 188.576 661.986 188.012 663.161 186.854C664.503 185.697 665.183 183.869 665.201 181.369L665.731 108.621C665.75 105.954 665.098 104.033 663.773 102.857C662.615 101.681 659.869 101.078 655.536 101.047L642.036 100.948L642.173 82.1988ZM784.293 206.487C784.285 207.653 783.864 208.234 783.03 208.227L757.781 208.044C748.448 207.976 741.547 205.759 737.079 201.393C732.777 197.028 730.662 189.929 730.734 180.096L731.846 27.3501L747.095 27.4611C754.428 27.5145 759.915 29.3878 763.555 33.0811C767.363 36.6089 769.246 41.206 769.205 46.8726L768.236 179.869C768.199 185.036 769.261 187.96 771.423 188.642C772.586 189.151 774.167 189.412 776.167 189.427L782.417 189.473C783.75 189.482 784.413 190.07 784.404 191.237L784.293 206.487ZM863.108 102.558L849.609 102.459C844.442 102.422 841.519 103.317 840.839 105.146C839.823 107.305 839.301 110.385 839.272 114.384L838.809 177.883C838.807 178.216 838.8 179.216 838.788 180.883C838.775 182.549 838.932 183.967 839.257 185.136C839.9 188.308 843.139 189.915 848.972 189.957L862.471 190.055L862.335 208.805L838.086 208.628C831.752 208.582 826.588 208.295 822.591 207.765C818.596 207.07 815.106 205.711 812.121 203.689C809.135 201.667 806.901 199.484 805.418 197.14C803.937 194.629 802.715 190.704 801.754 185.363C800.642 177.855 800.135 167.351 800.233 153.851C800.332 140.352 800.481 131.269 800.682 126.604C800.884 121.772 801.171 116.69 801.543 111.36C802.081 106.03 802.86 102.119 803.878 99.6264C805.063 97.1349 806.498 94.6453 808.183 92.1575C810.035 89.5042 812.382 87.688 815.222 86.7086C821.405 84.5869 829.329 83.5612 838.996 83.6316L863.245 83.8081L863.108 102.558ZM918.596 207.464C918.588 208.631 918.25 209.212 917.583 209.207L897.084 209.058C887.751 208.99 880.85 206.773 876.382 202.407C872.08 198.042 869.965 190.943 870.037 181.11L870.745 83.8627L880.994 83.9373C891.494 84.0138 898.642 86.5659 902.439 91.5936C906.237 96.4547 908.107 102.885 908.049 110.885L907.539 180.883C907.502 186.05 908.564 188.974 910.726 189.657C911.889 190.165 913.47 190.427 915.47 190.441L916.72 190.45C918.053 190.46 918.716 191.048 918.707 192.215L918.596 207.464ZM975.551 209.629L960.301 209.518C952.968 209.465 947.397 207.674 943.59 204.146C939.95 200.453 938.151 195.773 938.192 190.107L939.227 47.8603C939.269 42.1938 941.135 37.6239 944.827 34.1507C948.687 30.512 954.284 28.7194 961.617 28.7727L976.866 28.8838L975.551 209.629ZM983.96 84.6869L1008.21 84.8634C1014.54 84.9095 1019.71 85.2805 1023.7 85.9762C1027.7 86.5053 1031.19 87.7808 1034.17 89.8025C1037.16 91.8243 1039.39 94.0907 1040.88 96.6015C1042.36 98.9457 1043.58 102.788 1044.54 108.129C1045.65 115.637 1046.16 126.141 1046.06 139.64C1045.96 153.14 1045.81 162.306 1045.61 167.138C1045.41 171.803 1045.04 176.801 1044.5 182.13C1044.13 187.461 1043.35 191.372 1042.17 193.863C1041.15 196.356 1039.71 198.929 1037.86 201.582C1036.18 204.07 1033.91 205.804 1031.07 206.783C1024.89 208.905 1016.97 209.93 1007.3 209.86L983.05 209.684L983.187 190.934L996.687 191.032C1001.02 191.064 1003.77 190.501 1004.95 189.342C1006.29 188.186 1006.97 186.357 1006.99 183.857L1007.52 111.109C1007.54 108.442 1006.89 106.521 1005.56 105.345C1004.4 104.17 1001.66 103.566 997.324 103.535L983.824 103.436L983.96 84.6869Z" fill="black"/>
<defs>
<linearGradient id="paint0_linear_0_1" x1="110" y1="62" x2="136" y2="62" gradientUnits="userSpaceOnUse">
<stop stop-color="#83F653"/>
<stop offset="1" stop-color="#529535"/>
</linearGradient>
<linearGradient id="paint1_linear_0_1" x1="110" y1="73" x2="136" y2="73" gradientUnits="userSpaceOnUse">
<stop stop-color="#83F653"/>
<stop offset="1" stop-color="#529535"/>
</linearGradient>
<linearGradient id="paint2_linear_0_1" x1="110" y1="84" x2="136" y2="84" gradientUnits="userSpaceOnUse">
<stop stop-color="#83F653"/>
<stop offset="1" stop-color="#529535"/>
</linearGradient>
<linearGradient id="paint3_linear_0_1" x1="60" y1="67" x2="60" y2="79" gradientUnits="userSpaceOnUse">
<stop stop-color="#81CF60"/>
<stop offset="1" stop-color="#529535"/>
</linearGradient>
<linearGradient id="paint4_linear_0_1" x1="133" y1="149" x2="133" y2="161" gradientUnits="userSpaceOnUse">
<stop stop-color="#83F653"/>
<stop offset="1" stop-color="#529535"/>
</linearGradient>
<linearGradient id="paint5_linear_0_1" x1="98.9999" y1="7" x2="98.9999" y2="227" gradientUnits="userSpaceOnUse">
<stop offset="0.288" stop-color="#57FA3E"/>
<stop offset="1" stop-color="#12700B" stop-opacity="0.81"/>
</linearGradient>
<linearGradient id="paint6_linear_0_1" x1="54" y1="144" x2="80" y2="144" gradientUnits="userSpaceOnUse">
<stop stop-color="#83F653"/>
<stop offset="1" stop-color="#529535"/>
</linearGradient>
<linearGradient id="paint7_linear_0_1" x1="54" y1="155" x2="80" y2="155" gradientUnits="userSpaceOnUse">
<stop stop-color="#83F653"/>
<stop offset="1" stop-color="#529535"/>
</linearGradient>
<linearGradient id="paint8_linear_0_1" x1="54" y1="166" x2="80" y2="166" gradientUnits="userSpaceOnUse">
<stop stop-color="#83F653"/>
<stop offset="1" stop-color="#529535"/>
</linearGradient>
</defs>
</svg>
