<svg width="460" height="350" viewBox="0 0 460 350" fill="none" xmlns="http://www.w3.org/2000/svg">
<path d="M357.898 87.282V105.325" stroke="#35008B" stroke-width="2" stroke-miterlimit="10" stroke-linecap="round"/>
<path d="M348.876 96.304H366.919" stroke="#35008B" stroke-width="2" stroke-miterlimit="10" stroke-linecap="round"/>
<path d="M128.439 1V16.937" stroke="#35008B" stroke-width="2" stroke-miterlimit="10" stroke-linecap="round"/>
<path d="M120.471 8.96799H136.408" stroke="#35008B" stroke-width="2" stroke-miterlimit="10" stroke-linecap="round"/>
<path d="M423.367 15.478C423.367 17.5745 422.746 19.6239 421.581 21.367C420.416 23.1102 418.761 24.4688 416.824 25.2711C414.887 26.0734 412.756 26.2833 410.7 25.8743C408.643 25.4653 406.755 24.4558 405.272 22.9733C403.79 21.4909 402.78 19.6021 402.371 17.5459C401.962 15.4897 402.172 13.3584 402.974 11.4215C403.777 9.48465 405.135 7.82916 406.878 6.66441C408.622 5.49967 410.671 4.87799 412.768 4.87799C415.579 4.87799 418.275 5.99477 420.263 7.98266C422.251 9.97054 423.367 12.6667 423.367 15.478Z" stroke="#35008B" stroke-width="2" stroke-miterlimit="10"/>
<path d="M49.2864 239.82C49.2864 241.916 48.6648 243.966 47.5 245.709C46.3353 247.452 44.6798 248.811 42.7429 249.613C40.806 250.415 38.6747 250.625 36.6185 250.216C34.5623 249.807 32.6735 248.798 31.1911 247.315C29.7087 245.833 28.6991 243.944 28.2901 241.888C27.8811 239.832 28.091 237.7 28.8933 235.764C29.6956 233.827 31.0542 232.171 32.7974 231.006C34.5405 229.842 36.5899 229.22 38.6864 229.22C41.4977 229.22 44.1939 230.337 46.1818 232.325C48.1696 234.313 49.2864 237.009 49.2864 239.82Z" stroke="#35008B" stroke-width="2" stroke-miterlimit="10"/>
<path d="M458.376 227.646C458.375 228.661 458.074 229.653 457.51 230.497C456.946 231.341 456.145 231.998 455.207 232.387C454.269 232.775 453.238 232.876 452.242 232.678C451.247 232.48 450.332 231.992 449.615 231.274C448.897 230.556 448.408 229.642 448.21 228.646C448.012 227.651 448.114 226.619 448.502 225.682C448.89 224.744 449.548 223.942 450.392 223.378C451.236 222.814 452.228 222.513 453.243 222.513C454.604 222.513 455.91 223.054 456.872 224.016C457.835 224.979 458.376 226.285 458.376 227.646Z" stroke="#35008B" stroke-width="2" stroke-miterlimit="10"/>
<path d="M86.3885 197.007C86.3883 198.022 86.0872 199.014 85.5232 199.858C84.9592 200.702 84.1577 201.359 83.22 201.748C82.2823 202.136 81.2505 202.237 80.2551 202.039C79.2596 201.841 78.3453 201.353 77.6276 200.635C76.91 199.917 76.4212 199.003 76.2232 198.007C76.0251 197.012 76.1267 195.98 76.515 195.043C76.9033 194.105 77.5609 193.303 78.4047 192.739C79.2485 192.175 80.2406 191.874 81.2555 191.874C82.6169 191.874 83.9225 192.415 84.8851 193.377C85.8477 194.34 86.3885 195.646 86.3885 197.007Z" stroke="#35008B" stroke-width="2" stroke-miterlimit="10"/>
<path d="M436.008 201.267C436.032 203.207 435.671 205.133 434.946 206.932C434.221 208.732 433.145 210.369 431.782 211.749C430.418 213.13 428.794 214.226 427.004 214.973C425.214 215.721 423.293 216.106 421.353 216.105H316.684C318.204 218.885 318.783 222.083 318.334 225.22C317.885 228.357 316.431 231.263 314.191 233.505C313.336 234.356 312.382 235.102 311.349 235.726H330.684C334.585 235.688 338.346 237.182 341.157 239.887C343.969 242.591 345.608 246.29 345.721 250.19C345.746 252.13 345.384 254.056 344.659 255.855C343.933 257.655 342.858 259.293 341.495 260.674C340.131 262.055 338.508 263.151 336.718 263.9C334.928 264.649 333.007 265.035 331.066 265.036H234.956C231.749 265.035 228.63 263.983 226.078 262.039C223.526 260.096 221.683 257.369 220.83 254.276C219.977 251.184 220.162 247.898 221.356 244.921C222.551 241.944 224.689 239.441 227.442 237.796H169.865C165.965 237.834 162.204 236.34 159.393 233.635C156.581 230.931 154.942 227.231 154.828 223.332C154.795 220.717 155.463 218.14 156.762 215.87C158.061 213.599 159.944 211.718 162.215 210.421C159.834 209.186 157.838 207.32 156.444 205.028C155.051 202.735 154.315 200.104 154.315 197.421V179.471C154.313 177.179 154.849 174.919 155.881 172.873C156.912 170.827 158.41 169.051 160.253 167.69H56.7935C52.8969 167.726 49.141 166.235 46.3304 163.536C43.5198 160.837 41.8779 157.145 41.7565 153.25C41.7276 151.307 42.0853 149.378 42.8089 147.575C43.5325 145.772 44.6074 144.131 45.9712 142.747C47.3349 141.363 48.9603 140.265 50.7527 139.515C52.545 138.765 54.4686 138.379 56.4115 138.38H63.7265C66.7282 138.379 69.6066 137.186 71.7291 135.064C73.8516 132.941 75.0444 130.063 75.0455 127.061V127.053C75.0444 124.051 73.8516 121.173 71.7291 119.05C69.6066 116.928 66.7282 115.735 63.7265 115.734H15.0485C13.1102 115.757 11.1867 115.394 9.38945 114.668C7.59217 113.942 5.95683 112.867 4.57819 111.504C3.19955 110.142 2.10502 108.519 1.35799 106.73C0.610972 104.942 0.226318 103.022 0.226318 101.084C0.226318 99.1456 0.610972 97.2265 1.35799 95.4378C2.10502 93.6491 3.19955 92.0265 4.57819 90.6638C5.95683 89.3012 7.59217 88.2257 9.38945 87.4996C11.1867 86.7735 13.1102 86.4113 15.0485 86.434H85.4245C87.3488 86.4345 89.2544 86.056 91.0324 85.3201C92.8105 84.5842 94.4262 83.5052 95.7873 82.1449C97.1483 80.7846 98.2281 79.1695 98.965 77.3918C99.7019 75.6142 100.081 73.7088 100.082 71.7845C100.083 69.8602 99.704 67.9546 98.9681 66.1765C98.2322 64.3985 97.1532 62.7828 95.7929 61.4217C94.4326 60.0607 92.8175 58.9808 91.0398 58.2439C89.2622 57.5071 87.3568 57.1275 85.4325 57.127H65.3325C61.4268 57.1622 57.6635 55.6624 54.8527 52.9505C52.0418 50.2386 50.4082 46.5314 50.3035 42.627C50.283 40.6897 50.647 38.7676 51.3743 36.9719C52.1017 35.1762 53.178 33.5427 54.541 32.1658C55.9039 30.7889 57.5264 29.696 59.3146 28.9504C61.1028 28.2047 63.0211 27.8212 64.9585 27.822H198.634C202.443 27.785 206.121 29.2081 208.914 31.7988C211.706 34.3895 213.4 37.9512 213.647 41.752C213.777 44.3495 213.213 46.9346 212.015 49.243H384.409C386.348 49.2203 388.271 49.5825 390.069 50.3086C391.866 51.0347 393.501 52.1102 394.88 53.4728C396.258 54.8354 397.353 56.4581 398.1 58.2468C398.847 60.0355 399.232 61.9546 399.232 63.893C399.232 65.8314 398.847 67.7505 398.1 69.5392C397.353 71.3279 396.258 72.9505 394.88 74.3132C393.501 75.6758 391.866 76.7513 390.069 77.4774C388.271 78.2034 386.348 78.5656 384.409 78.543H320.552C320.551 81.6968 319.297 84.721 317.067 86.9512C314.837 89.1814 311.813 90.4351 308.659 90.437H236.683C238.817 92.4505 240.297 95.0585 240.932 97.9231C241.566 100.788 241.326 103.777 240.241 106.503C239.157 109.229 237.279 111.567 234.851 113.213C232.422 114.86 229.555 115.739 226.621 115.737H206.498C205.707 115.736 204.922 115.891 204.19 116.194C203.458 116.496 202.793 116.94 202.233 117.5C201.673 118.059 201.228 118.724 200.924 119.455C200.621 120.187 200.465 120.971 200.464 121.763V121.771C200.465 122.563 200.621 123.347 200.924 124.079C201.228 124.81 201.673 125.475 202.233 126.034C202.793 126.594 203.458 127.038 204.19 127.34C204.922 127.643 205.707 127.798 206.498 127.797H369.865C371.804 127.774 373.727 128.137 375.525 128.863C377.322 129.589 378.957 130.664 380.336 132.027C381.714 133.389 382.809 135.012 383.556 136.801C384.303 138.589 384.688 140.509 384.688 142.447C384.688 144.385 384.303 146.305 383.556 148.093C382.809 149.882 381.714 151.505 380.336 152.867C378.957 154.23 377.322 155.305 375.525 156.031C373.727 156.757 371.804 157.12 369.865 157.097H327.613C329.756 158.408 331.526 160.247 332.754 162.438C333.982 164.629 334.627 167.098 334.626 169.61V173.789C334.628 176.477 333.889 179.114 332.49 181.41C331.092 183.706 329.088 185.572 326.698 186.804H420.971C424.872 186.766 428.633 188.26 431.444 190.965C434.256 193.669 435.895 197.369 436.008 201.268" fill="#FBF8FF"/>
<path d="M196.536 349.146C268.285 349.146 326.449 345.172 326.449 340.27C326.449 335.368 268.285 331.394 196.536 331.394C124.787 331.394 66.6226 335.368 66.6226 340.27C66.6226 345.172 124.787 349.146 196.536 349.146Z" fill="#EDE2FD"/>
<path d="M324.476 66.016C323.902 66.0158 323.331 65.9305 322.782 65.763L168.4 18.846C166.924 18.3971 165.686 17.3799 164.959 16.0182C164.232 14.6565 164.076 13.0619 164.524 11.585C164.973 10.1081 165.991 8.87009 167.352 8.1432C168.714 7.4163 170.309 7.26012 171.785 7.709L326.166 54.626C327.501 55.032 328.646 55.9039 329.391 57.0828C330.137 58.2618 330.435 59.6694 330.23 61.0493C330.026 62.4293 329.332 63.6898 328.276 64.6014C327.22 65.513 325.872 66.015 324.476 66.016Z" fill="#EADFFC"/>
<path d="M170.086 7.85399C170.622 7.85458 171.154 7.93411 171.665 8.08999L326.05 55.007C326.738 55.2088 327.378 55.5449 327.935 55.9957C328.492 56.4465 328.953 57.0031 329.294 57.6334C329.634 58.2637 329.846 58.9552 329.917 59.6679C329.989 60.3806 329.919 61.1005 329.71 61.7858C329.502 62.4712 329.16 63.1084 328.704 63.6609C328.248 64.2133 327.687 64.6698 327.054 65.0042C326.42 65.3386 325.727 65.5441 325.013 65.609C324.3 65.6738 323.581 65.5967 322.897 65.382L168.511 18.466C167.267 18.0882 166.201 17.2761 165.505 16.1776C164.81 15.0791 164.532 13.7674 164.723 12.4813C164.914 11.1953 165.56 10.0206 166.544 9.17126C167.529 8.3219 168.785 7.85442 170.085 7.85399M170.085 7.05399C168.594 7.05398 167.153 7.5898 166.024 8.56377C164.894 9.53775 164.153 10.885 163.934 12.3601C163.715 13.8351 164.033 15.3397 164.831 16.5997C165.629 17.8596 166.853 18.7909 168.279 19.224L322.666 66.148C324.245 66.6275 325.948 66.4605 327.403 65.6837C328.858 64.9069 329.945 63.584 330.424 62.006C330.904 60.4279 330.737 58.7241 329.96 57.2691C329.183 55.8142 327.861 54.7275 326.282 54.248L171.896 7.32899C171.31 7.14951 170.7 7.05818 170.086 7.05799" stroke="#35008B" stroke-width="2"/>
<path d="M233.902 150.391C223.023 150.384 212.298 147.831 202.584 142.936C192.869 138.041 184.435 130.94 177.957 122.201C171.478 113.463 167.135 103.33 165.275 92.6118C163.414 81.8941 164.088 70.8896 167.243 60.479L178.89 22.155L312.157 62.655L300.511 100.979C296.163 115.44 287.195 128.078 274.98 136.955C263.042 145.641 248.669 150.342 233.906 150.39L233.902 150.391Z" fill="white"/>
<path d="M168.908 107.987C173.946 116.738 180.172 124.749 187.408 131.792C195.848 139.919 207.708 147.5 218.23 148.592C242.996 151.153 246.887 150.362 251.664 148.592C256.441 146.822 279.615 136.708 281.564 131.792C283.513 126.876 168.908 107.987 168.908 107.987Z" fill="#F8F4FF"/>
<path d="M223.918 126.097C254.664 132.633 280.166 135.214 280.879 131.864C281.591 128.514 257.243 120.5 226.497 113.964C195.75 107.429 170.248 104.847 169.536 108.197C168.824 111.548 193.171 119.562 223.918 126.097Z" fill="#EFE8FC"/>
<path d="M179.155 22.652L311.66 62.92L300.13 100.863C295.807 115.241 286.891 127.806 274.746 136.633C266.082 142.981 256.058 147.222 245.469 149.019C234.88 150.815 224.018 150.118 213.745 146.982C205.045 144.338 196.951 140.006 189.924 134.234C182.898 128.462 177.078 121.362 172.795 113.34C168.513 105.319 165.852 96.5321 164.965 87.4822C164.079 78.4323 164.983 69.2963 167.627 60.596L179.155 22.652ZM178.624 21.659L166.862 60.359C161.461 78.1322 163.342 97.3231 172.09 113.71C180.838 130.097 195.738 142.337 213.511 147.738C231.284 153.14 250.475 151.259 266.862 142.511C283.249 133.763 295.489 118.863 300.891 101.09L312.654 62.39L178.624 21.659Z" stroke="#35008B" stroke-width="2"/>
<path d="M263.085 285.935C262.568 285.935 262.054 285.865 261.557 285.729L105.829 243.19C104.466 242.812 103.285 241.954 102.505 240.774C101.725 239.594 101.397 238.173 101.582 236.77C101.767 235.368 102.453 234.08 103.512 233.143C104.572 232.206 105.934 231.684 107.349 231.672C107.865 231.672 108.379 231.741 108.877 231.878L264.605 274.419C265.967 274.797 267.148 275.655 267.928 276.835C268.708 278.015 269.036 279.436 268.851 280.839C268.666 282.241 267.98 283.529 266.921 284.466C265.861 285.403 264.499 285.925 263.085 285.937" fill="#EADFFC"/>
<path d="M263.085 285.935C262.568 285.935 262.054 285.865 261.557 285.729L105.829 243.19C104.466 242.812 103.285 241.954 102.505 240.774C101.725 239.594 101.397 238.173 101.582 236.77C101.767 235.368 102.453 234.08 103.512 233.143C104.572 232.206 105.934 231.684 107.349 231.672C107.865 231.672 108.379 231.741 108.877 231.878L264.605 274.419C265.967 274.797 267.148 275.655 267.928 276.835C268.708 278.015 269.036 279.436 268.851 280.839C268.666 282.241 267.98 283.529 266.921 284.466C265.861 285.403 264.499 285.925 263.085 285.937" stroke="#35008B" stroke-width="2"/>
<path d="M119.529 235.024L130.012 196.363C132.391 187.52 136.491 179.233 142.077 171.977C147.663 164.72 154.626 158.637 162.566 154.075C170.506 149.512 179.268 146.561 188.35 145.389C197.432 144.217 206.656 144.848 215.494 147.245C224.333 149.642 232.611 153.759 239.856 159.36C247.101 164.961 253.171 171.935 257.717 179.885C262.263 187.834 265.197 196.602 266.351 205.686C267.504 214.771 266.855 223.994 264.44 232.827L253.949 271.488L119.529 235.024Z" fill="white"/>
<path d="M151.454 162.636C151.454 162.636 147.637 209.876 207.163 210.312C266.689 210.748 266.14 218.66 266.14 218.66C266.729 225.611 265.709 232.605 263.158 239.098C258.898 250.118 253.71 271.581 253.71 271.581L163.666 246.97L119.097 234.624L129.415 199.19C129.415 199.19 133.198 178.27 142.466 171.445C151.734 164.62 151.454 162.636 151.454 162.636Z" fill="#F8F4FF"/>
<path d="M207.545 145.67L191.101 193.494C191.101 193.494 192.387 195.394 193.72 194.691L223.027 151.616L207.545 145.67Z" fill="#F8F4FF"/>
<path d="M197.184 144.541V145.341C207.831 145.325 218.339 147.766 227.888 152.474C237.438 157.183 245.773 164.031 252.244 172.487C258.714 180.943 263.146 190.777 265.195 201.226C267.244 211.674 266.854 222.455 264.056 232.728L253.67 271.005L120.018 234.745L130.397 196.468C134.374 181.797 143.069 168.842 155.138 159.602C167.208 150.361 181.982 145.348 197.183 145.336L197.184 144.541ZM197.184 144.541C181.805 144.539 166.853 149.604 154.642 158.953C142.431 168.301 133.64 181.413 129.63 196.26L119.041 235.305L254.229 271.978L264.829 232.933C267.637 222.543 268.015 211.646 265.934 201.086C263.853 190.526 259.368 180.587 252.827 172.04C246.286 163.492 237.865 156.566 228.216 151.797C218.567 147.028 207.95 144.546 197.187 144.541" stroke="#35008B" stroke-width="2"/>
<path d="M189.84 204.074C191.884 204.29 193.716 202.808 193.932 200.764C194.147 198.719 192.665 196.887 190.621 196.672C188.577 196.456 186.745 197.938 186.529 199.982C186.313 202.027 187.795 203.859 189.84 204.074Z" fill="#F8F4FF"/>
<path d="M300.044 302.419H220.037C218.954 302.419 217.984 301.859 217.441 300.923C216.898 299.986 216.896 298.866 217.434 297.927L257.438 228.153C257.979 227.209 258.952 226.645 260.04 226.645C261.129 226.645 262.102 227.209 262.643 228.153L302.646 297.927C303.185 298.866 303.182 299.986 302.64 300.923C302.097 301.859 301.126 302.419 300.044 302.419Z" fill="#F8F4FF"/>
<path d="M260.04 227.645C259.692 227.645 258.825 227.743 258.305 228.65L218.302 298.424C217.784 299.327 218.132 300.121 218.306 300.421C218.48 300.721 218.996 301.419 220.037 301.419H300.044C301.084 301.419 301.6 300.721 301.774 300.421C301.948 300.121 302.296 299.326 301.779 298.424L261.775 228.65C261.255 227.743 260.389 227.645 260.04 227.645ZM260.04 225.645C261.391 225.645 262.742 226.315 263.51 227.656L303.514 297.429C305.043 300.096 303.117 303.419 300.044 303.419C300.044 303.419 300.044 303.419 300.044 303.419H220.037C216.963 303.419 215.038 300.096 216.567 297.429L256.57 227.656C257.339 226.315 258.689 225.645 260.04 225.645Z" fill="#35008B"/>
<path d="M258.95 292.51C260.155 292.51 261.132 291.533 261.132 290.328C261.132 289.123 260.155 288.146 258.95 288.146C257.744 288.146 256.768 289.123 256.768 290.328C256.768 291.533 257.744 292.51 258.95 292.51Z" fill="#35008B"/>
<path d="M261.132 256.511C261.132 255.306 260.155 254.329 258.95 254.329C257.744 254.329 256.768 255.306 256.768 256.511V281.601C256.768 282.806 257.744 283.783 258.95 283.783C260.155 283.783 261.132 282.806 261.132 281.601V256.511Z" fill="#35008B"/>
</svg>
