<svg width="936" height="227" viewBox="0 0 936 227" fill="none" xmlns="http://www.w3.org/2000/svg">
<rect x="110" y="59" width="26" height="6" rx="3" fill="url(#paint0_linear_0_1)"/>
<rect x="110" y="70" width="26" height="6" rx="3" fill="url(#paint1_linear_0_1)"/>
<rect x="110" y="81" width="26" height="6" rx="3" fill="url(#paint2_linear_0_1)"/>
<circle cx="60" cy="73" r="6" fill="url(#paint3_linear_0_1)"/>
<circle cx="133" cy="155" r="6" fill="url(#paint4_linear_0_1)"/>
<path d="M2.44063 139.691C-2.39364 98.9187 6.18651 62.5761 11.5 50.5C13.7095 45.4785 14.4692 43.6317 14.6836 43.046C14.3844 43.5165 14.9477 42.3246 14.6836 43.046C14.7462 42.9476 14.8465 42.7765 15 42.5C18.3382 36.4856 20.4776 34.183 25 29C29.361 24.0019 32.2289 21.5267 37.5 17.5C44.1794 12.3974 48.2303 9.70641 56 6.50001C64.8884 2.83195 70.4452 2.07918 80 1.00001C94.2668 -0.61137 116.303 3.11839 118.347 3.47318C118.46 3.49277 118.553 3.51326 118.664 3.54196C119.502 3.75901 123.602 4.8481 132 7.49997C139.932 10.0049 143.452 11.7891 150.441 16.9563C150.48 16.985 150.514 17.0112 150.552 17.0412C151.486 17.7805 164.713 28.3379 170.5 37.5C174.396 42.4968 176.47 46.7746 179.5 51L182.002 55.6186C183.806 58.9501 181.394 63 177.605 63H147.987C145.225 63 142.987 60.7614 142.987 58V53C142.987 50.2386 140.748 48 137.987 48H118.5H96H51.5C48.7386 48 46.5 50.2386 46.5 53V94.5C46.5 97.2614 48.7386 99.5 51.5 99.5H96H137.987C140.748 99.5 142.987 97.2614 142.987 94.5V89.2103C142.987 86.3681 145.377 84.1005 148.217 84.1965C190.603 85.6282 186.111 81.4356 186.002 89.7063C185.999 89.8958 186.01 90.0859 186.031 90.2742C186.255 92.2714 187.631 104.735 188 113C188.42 122.393 188.015 136.984 188 137.487L188 137.516C187.99 138.016 187.724 150.312 186 158L185.885 158.512C184.278 165.687 183.252 170.263 180 177C173.408 190.655 160.164 201.207 158.643 202.389C158.545 202.466 158.448 202.534 158.343 202.601L150 208L141.811 213.299C141.604 213.433 141.387 213.551 141.163 213.653L130.826 218.352C130.609 218.451 130.385 218.533 130.157 218.6L118.601 221.971C118.534 221.99 118.473 222.007 118.405 222.023C117.276 222.298 106.302 224.94 98.9865 225.5C93.151 225.947 85 225.5 84 225.5C83 225.5 72.1656 224.362 65 222C59.9348 220.331 57.2556 218.914 52.5 216.5C46.4084 213.408 43.1354 211.361 37.5 207.5C34.8197 205.664 30.9332 202.712 30.1432 202.109C30.046 202.035 29.9542 201.959 29.8628 201.878L25.5 198L21.1198 193.62C21.04 193.54 20.9646 193.459 20.8904 193.374C20.2612 192.652 17.0637 188.978 15 186.5C12.4284 183.412 9.45616 178.21 8.6885 176.839C8.56094 176.611 8.41983 176.396 8.26024 176.19L6.22605 173.557C3.68644 170.271 6.02903 165.5 10.1825 165.5H41.5C44.2614 165.5 46.5 167.739 46.5 170.5V176C46.5 178.761 48.7386 181 51.5 181H96H137.987C140.748 181 142.987 178.761 142.987 176V133.5C142.987 130.739 140.748 128.5 137.987 128.5H102.5H51.5C48.7386 128.5 46.5 130.739 46.5 133.5V139C46.5 141.761 44.2614 144 41.5 144H25H7.3437C4.85232 144 2.73397 142.165 2.44063 139.691Z" fill="url(#paint5_linear_0_1)" stroke="url(#paint6_linear_0_1)"/>
<rect x="54" y="141" width="26" height="6" rx="3" fill="url(#paint7_linear_0_1)"/>
<rect x="54" y="152" width="26" height="6" rx="3" fill="url(#paint8_linear_0_1)"/>
<rect x="54" y="163" width="26" height="6" rx="3" fill="url(#paint9_linear_0_1)"/>
<path d="M206.122 88.4162L215.239 88.4826L215.173 97.6L206.056 97.5336L206.122 88.4162ZM215.239 88.4826L224.357 88.5489L224.291 97.6663L215.173 97.6L215.239 88.4826ZM224.357 88.5489L233.474 88.6153L233.408 97.7327L224.291 97.6663L224.357 88.5489ZM233.474 88.6153L242.592 88.6817L242.525 97.7991L233.408 97.7327L233.474 88.6153ZM242.592 88.6817L251.709 88.748L251.643 97.8654L242.525 97.7991L242.592 88.6817ZM251.709 88.748L260.827 88.8144L260.76 97.9318L251.643 97.8654L251.709 88.748ZM260.827 88.8144L269.944 88.8808L269.878 97.9982L260.76 97.9318L260.827 88.8144ZM269.944 88.8808L279.061 88.9472L278.995 98.0646L269.878 97.9982L269.944 88.8808ZM279.061 88.9472L288.179 89.0135L288.112 98.1309L278.995 98.0646L279.061 88.9472ZM278.995 98.0646L288.112 98.1309L288.046 107.248L278.929 107.182L278.995 98.0646ZM278.929 107.182L288.046 107.248L287.98 116.366L278.862 116.299L278.929 107.182ZM269.811 107.116L278.929 107.182L278.862 116.299L269.745 116.233L269.811 107.116ZM260.694 107.049L269.811 107.116L269.745 116.233L260.627 116.167L260.694 107.049ZM251.576 106.983L260.694 107.049L260.627 116.167L251.51 116.1L251.576 106.983ZM242.459 106.916L251.576 106.983L251.51 116.1L242.393 116.034L242.459 106.916ZM233.342 106.85L242.459 106.916L242.393 116.034L233.275 115.968L233.342 106.85ZM224.224 106.784L233.342 106.85L233.275 115.968L224.158 115.901L224.224 106.784ZM215.107 106.717L224.224 106.784L224.158 115.901L215.04 115.835L215.107 106.717ZM215.173 97.6L224.291 97.6663L224.224 106.784L215.107 106.717L215.173 97.6ZM206.056 97.5336L215.173 97.6L215.107 106.717L205.989 106.651L206.056 97.5336ZM205.989 106.651L215.107 106.717L215.04 115.835L205.923 115.768L205.989 106.651ZM224.291 97.6663L233.408 97.7327L233.342 106.85L224.224 106.784L224.291 97.6663ZM233.408 97.7327L242.525 97.7991L242.459 106.916L233.342 106.85L233.408 97.7327ZM242.525 97.7991L251.643 97.8654L251.576 106.983L242.459 106.916L242.525 97.7991ZM251.643 97.8654L260.76 97.9318L260.694 107.049L251.576 106.983L251.643 97.8654ZM260.76 97.9318L269.878 97.9982L269.811 107.116L260.694 107.049L260.76 97.9318ZM269.878 97.9982L278.995 98.0646L278.929 107.182L269.811 107.116L269.878 97.9982ZM224.423 79.4315L233.541 79.4979L233.474 88.6153L224.357 88.5489L224.423 79.4315ZM233.541 79.4979L242.658 79.5643L242.592 88.6817L233.474 88.6153L233.541 79.4979ZM242.658 79.5643L251.775 79.6306L251.709 88.748L242.592 88.6817L242.658 79.5643ZM251.775 79.6306L260.893 79.697L260.827 88.8144L251.709 88.748L251.775 79.6306ZM242.724 70.4469L251.842 70.5132L251.775 79.6306L242.658 79.5643L242.724 70.4469ZM233.607 70.3805L242.724 70.4469L242.658 79.5643L233.541 79.4979L233.607 70.3805ZM251.842 70.5132L260.959 70.5796L260.893 79.697L251.775 79.6306L251.842 70.5132ZM251.975 52.2784L261.092 52.3448L261.026 61.4622L251.908 61.3958L251.975 52.2784ZM251.908 61.3958L261.026 61.4622L260.959 70.5796L251.842 70.5132L251.908 61.3958ZM242.791 61.3294L251.908 61.3958L251.842 70.5132L242.724 70.4469L242.791 61.3294ZM252.041 43.161L261.158 43.2274L261.092 52.3448L251.975 52.2784L252.041 43.161ZM242.857 52.2121L251.975 52.2784L251.908 61.3958L242.791 61.3294L242.857 52.2121ZM233.673 61.2631L242.791 61.3294L242.724 70.4469L233.607 70.3805L233.673 61.2631ZM224.49 70.3141L233.607 70.3805L233.541 79.4979L224.423 79.4315L224.49 70.3141ZM224.158 115.901L233.275 115.968L233.209 125.085L224.091 125.019L224.158 115.901ZM224.091 125.019L233.209 125.085L233.142 134.202L224.025 134.136L224.091 125.019ZM224.025 134.136L233.142 134.202L233.076 143.32L223.959 143.253L224.025 134.136ZM223.959 143.253L233.076 143.32L233.01 152.437L223.892 152.371L223.959 143.253ZM233.076 143.32L242.193 143.386L242.127 152.504L233.01 152.437L233.076 143.32ZM233.01 152.437L242.127 152.504L242.061 161.621L232.943 161.555L233.01 152.437ZM242.193 143.386L251.311 143.452L251.245 152.57L242.127 152.504L242.193 143.386ZM242.26 134.269L251.377 134.335L251.311 143.452L242.193 143.386L242.26 134.269ZM251.377 134.335L260.495 134.401L260.428 143.519L251.311 143.452L251.377 134.335ZM251.444 125.218L260.561 125.284L260.495 134.401L251.377 134.335L251.444 125.218ZM242.393 116.034L251.51 116.1L251.444 125.218L242.326 125.151L242.393 116.034ZM233.275 115.968L242.393 116.034L242.326 125.151L233.209 125.085L233.275 115.968ZM233.209 125.085L242.326 125.151L242.26 134.269L233.142 134.202L233.209 125.085ZM233.142 134.202L242.26 134.269L242.193 143.386L233.076 143.32L233.142 134.202ZM242.326 125.151L251.444 125.218L251.377 134.335L242.26 134.269L242.326 125.151ZM251.51 116.1L260.627 116.167L260.561 125.284L251.444 125.218L251.51 116.1ZM251.311 143.452L260.428 143.519L260.362 152.636L251.245 152.57L251.311 143.452ZM251.245 152.57L260.362 152.636L260.296 161.754L251.178 161.687L251.245 152.57ZM242.127 152.504L251.245 152.57L251.178 161.687L242.061 161.621L242.127 152.504ZM242.061 161.621L251.178 161.687L251.112 170.805L241.994 170.738L242.061 161.621ZM232.943 161.555L242.061 161.621L241.994 170.738L232.877 170.672L232.943 161.555ZM223.892 152.371L233.01 152.437L232.943 161.555L223.826 161.488L223.892 152.371ZM223.826 161.488L232.943 161.555L232.877 170.672L223.76 170.606L223.826 161.488ZM251.178 161.687L260.296 161.754L260.229 170.871L251.112 170.805L251.178 161.687ZM223.76 170.606L232.877 170.672L232.811 179.789L223.693 179.723L223.76 170.606ZM232.877 170.672L241.994 170.738L241.928 179.856L232.811 179.789L232.877 170.672ZM232.811 179.789L241.928 179.856L241.862 188.973L232.744 188.907L232.811 179.789ZM241.928 179.856L251.045 179.922L250.979 189.039L241.862 188.973L241.928 179.856ZM251.045 179.922L260.163 179.988L260.096 189.106L250.979 189.039L251.045 179.922ZM251.112 170.805L260.229 170.871L260.163 179.988L251.045 179.922L251.112 170.805ZM241.994 170.738L251.112 170.805L251.045 179.922L241.928 179.856L241.994 170.738ZM223.693 179.723L232.811 179.789L232.744 188.907L223.627 188.84L223.693 179.723ZM250.979 189.039L260.096 189.106L260.03 198.223L250.913 198.157L250.979 189.039ZM260.096 189.106L269.214 189.172L269.147 198.29L260.03 198.223L260.096 189.106ZM260.163 179.988L269.28 180.055L269.214 189.172L260.096 189.106L260.163 179.988ZM241.862 188.973L250.979 189.039L250.913 198.157L241.795 198.091L241.862 188.973ZM232.744 188.907L241.862 188.973L241.795 198.091L232.678 198.024L232.744 188.907ZM232.678 198.024L241.795 198.091L241.729 207.208L232.611 207.142L232.678 198.024ZM241.795 198.091L250.913 198.157L250.846 207.274L241.729 207.208L241.795 198.091ZM250.913 198.157L260.03 198.223L259.964 207.341L250.846 207.274L250.913 198.157ZM260.03 198.223L269.147 198.29L269.081 207.407L259.964 207.341L260.03 198.223ZM269.147 198.29L278.265 198.356L278.198 207.473L269.081 207.407L269.147 198.29ZM269.214 189.172L278.331 189.239L278.265 198.356L269.147 198.29L269.214 189.172ZM278.331 189.239L287.449 189.305L287.382 198.422L278.265 198.356L278.331 189.239ZM278.265 198.356L287.382 198.422L287.316 207.54L278.198 207.473L278.265 198.356ZM269.081 207.407L278.198 207.473L278.132 216.591L269.015 216.524L269.081 207.407ZM259.964 207.341L269.081 207.407L269.015 216.524L259.897 216.458L259.964 207.341ZM250.846 207.274L259.964 207.341L259.897 216.458L250.78 216.392L250.846 207.274ZM278.198 207.473L287.316 207.54L287.25 216.657L278.132 216.591L278.198 207.473ZM433.003 217.718L423.886 217.652L423.952 208.534L433.07 208.601L433.003 217.718ZM423.886 217.652L414.769 217.585L414.835 208.468L423.952 208.534L423.886 217.652ZM414.769 217.585L405.651 217.519L405.718 208.402L414.835 208.468L414.769 217.585ZM433.136 199.483L424.019 199.417L424.085 190.3L433.202 190.366L433.136 199.483ZM433.07 208.601L423.952 208.534L424.019 199.417L433.136 199.483L433.07 208.601ZM415.698 89.9418L406.58 89.8755L406.647 80.7581L415.764 80.8244L415.698 89.9418ZM424.815 90.0082L415.698 89.9418L415.764 80.8244L424.882 80.8908L424.815 90.0082ZM433.866 99.192L424.749 99.1256L424.815 90.0082L433.933 90.0746L433.866 99.192ZM433.8 108.309L424.682 108.243L424.749 99.1256L433.866 99.192L433.8 108.309ZM433.933 90.0746L424.815 90.0082L424.882 80.8908L433.999 80.9572L433.933 90.0746ZM387.416 217.386L378.299 217.32L378.365 208.203L387.483 208.269L387.416 217.386ZM405.651 217.519L396.534 217.453L396.6 208.335L405.718 208.402L405.651 217.519ZM378.299 217.32L369.182 217.254L369.248 208.136L378.365 208.203L378.299 217.32ZM369.182 217.254L360.064 217.187L360.13 208.07L369.248 208.136L369.182 217.254ZM360.064 217.187L350.947 217.121L351.013 208.003L360.13 208.07L360.064 217.187ZM350.947 217.121L341.829 217.055L341.896 207.937L351.013 208.003L350.947 217.121ZM341.896 207.937L332.778 207.871L332.845 198.753L341.962 198.82L341.896 207.937ZM351.013 208.003L341.896 207.937L341.962 198.82L351.079 198.886L351.013 208.003ZM351.079 198.886L341.962 198.82L342.028 189.702L351.146 189.769L351.079 198.886ZM332.778 207.871L323.661 207.804L323.727 198.687L332.845 198.753L332.778 207.871ZM332.845 198.753L323.727 198.687L323.794 189.57L332.911 189.636L332.845 198.753ZM341.962 198.82L332.845 198.753L332.911 189.636L342.028 189.702L341.962 198.82ZM351.146 189.769L342.028 189.702L342.095 180.585L351.212 180.651L351.146 189.769ZM360.263 189.835L351.146 189.769L351.212 180.651L360.33 180.718L360.263 189.835ZM342.028 189.702L332.911 189.636L332.977 180.519L342.095 180.585L342.028 189.702ZM332.911 189.636L323.794 189.57L323.86 180.452L332.977 180.519L332.911 189.636ZM323.794 189.57L314.676 189.503L314.743 180.386L323.86 180.452L323.794 189.57ZM323.86 180.452L314.743 180.386L314.809 171.268L323.926 171.335L323.86 180.452ZM323.926 171.335L314.809 171.268L314.875 162.151L323.993 162.217L323.926 171.335ZM323.993 162.217L314.875 162.151L314.942 153.034L324.059 153.1L323.993 162.217ZM324.059 153.1L314.942 153.034L315.008 143.916L324.125 143.983L324.059 153.1ZM324.125 143.983L315.008 143.916L315.074 134.799L324.192 134.865L324.125 143.983ZM324.192 134.865L315.074 134.799L315.141 125.681L324.258 125.748L324.192 134.865ZM324.258 125.748L315.141 125.681L315.207 116.564L324.325 116.63L324.258 125.748ZM324.325 116.63L315.207 116.564L315.274 107.447L324.391 107.513L324.325 116.63ZM333.442 116.697L324.325 116.63L324.391 107.513L333.508 107.579L333.442 116.697ZM333.508 107.579L324.391 107.513L324.457 98.3955L333.575 98.4619L333.508 107.579ZM333.575 98.4619L324.457 98.3955L324.524 89.2781L333.641 89.3445L333.575 98.4619ZM342.692 98.5283L333.575 98.4619L333.641 89.3445L342.759 89.4109L342.692 98.5283ZM351.81 98.5946L342.692 98.5283L342.759 89.4109L351.876 89.4772L351.81 98.5946ZM351.677 116.829L342.559 116.763L342.626 107.646L351.743 107.712L351.677 116.829ZM351.743 107.712L342.626 107.646L342.692 98.5283L351.81 98.5946L351.743 107.712ZM342.626 107.646L333.508 107.579L333.575 98.4619L342.692 98.5283L342.626 107.646ZM342.559 116.763L333.442 116.697L333.508 107.579L342.626 107.646L342.559 116.763ZM342.493 125.88L333.376 125.814L333.442 116.697L342.559 116.763L342.493 125.88ZM351.61 125.947L342.493 125.88L342.559 116.763L351.677 116.829L351.61 125.947ZM351.544 135.064L342.427 134.998L342.493 125.88L351.61 125.947L351.544 135.064ZM351.478 144.182L342.36 144.115L342.427 134.998L351.544 135.064L351.478 144.182ZM351.411 153.299L342.294 153.233L342.36 144.115L351.478 144.182L351.411 153.299ZM351.345 162.416L342.228 162.35L342.294 153.233L351.411 153.299L351.345 162.416ZM351.279 171.534L342.161 171.467L342.228 162.35L351.345 162.416L351.279 171.534ZM351.212 180.651L342.095 180.585L342.161 171.467L351.279 171.534L351.212 180.651ZM342.095 180.585L332.977 180.519L333.044 171.401L342.161 171.467L342.095 180.585ZM342.161 171.467L333.044 171.401L333.11 162.284L342.228 162.35L342.161 171.467ZM342.228 162.35L333.11 162.284L333.177 153.166L342.294 153.233L342.228 162.35ZM342.294 153.233L333.177 153.166L333.243 144.049L342.36 144.115L342.294 153.233ZM342.36 144.115L333.243 144.049L333.309 134.932L342.427 134.998L342.36 144.115ZM342.427 134.998L333.309 134.932L333.376 125.814L342.493 125.88L342.427 134.998ZM333.376 125.814L324.258 125.748L324.325 116.63L333.442 116.697L333.376 125.814ZM333.309 134.932L324.192 134.865L324.258 125.748L333.376 125.814L333.309 134.932ZM333.243 144.049L324.125 143.983L324.192 134.865L333.309 134.932L333.243 144.049ZM333.177 153.166L324.059 153.1L324.125 143.983L333.243 144.049L333.177 153.166ZM333.11 162.284L323.993 162.217L324.059 153.1L333.177 153.166L333.11 162.284ZM333.044 171.401L323.926 171.335L323.993 162.217L333.11 162.284L333.044 171.401ZM332.977 180.519L323.86 180.452L323.926 171.335L333.044 171.401L332.977 180.519ZM351.876 89.4772L342.759 89.4109L342.825 80.2935L351.942 80.3598L351.876 89.4772ZM406.58 89.8755L397.463 89.8091L397.529 80.6917L406.647 80.7581L406.58 89.8755ZM406.514 98.9929L397.397 98.9265L397.463 89.8091L406.58 89.8755L406.514 98.9929ZM415.631 99.0592L406.514 98.9929L406.58 89.8755L415.698 89.9418L415.631 99.0592ZM424.749 99.1256L415.631 99.0592L415.698 89.9418L424.815 90.0082L424.749 99.1256ZM424.218 172.065L415.1 171.998L415.167 162.881L424.284 162.947L424.218 172.065ZM424.151 181.182L415.034 181.116L415.1 171.998L424.218 172.065L424.151 181.182ZM433.202 190.366L424.085 190.3L424.151 181.182L433.269 181.249L433.202 190.366ZM424.019 199.417L414.901 199.351L414.968 190.233L424.085 190.3L424.019 199.417ZM414.835 208.468L405.718 208.402L405.784 199.284L414.901 199.351L414.835 208.468ZM405.718 208.402L396.6 208.335L396.666 199.218L405.784 199.284L405.718 208.402ZM396.6 208.335L387.483 208.269L387.549 199.152L396.666 199.218L396.6 208.335ZM396.666 199.218L387.549 199.152L387.615 190.034L396.733 190.101L396.666 199.218ZM396.733 190.101L387.615 190.034L387.682 180.917L396.799 180.983L396.733 190.101ZM405.85 190.167L396.733 190.101L396.799 180.983L405.917 181.05L405.85 190.167ZM414.968 190.233L405.85 190.167L405.917 181.05L415.034 181.116L414.968 190.233ZM405.917 181.05L396.799 180.983L396.866 171.866L405.983 171.932L405.917 181.05ZM405.983 171.932L396.866 171.866L396.932 162.748L406.049 162.815L405.983 171.932ZM406.049 162.815L396.932 162.748L396.998 153.631L406.116 153.697L406.049 162.815ZM406.448 108.11L397.33 108.044L397.397 98.9265L406.514 98.9929L406.448 108.11ZM415.565 108.177L406.448 108.11L406.514 98.9929L415.631 99.0592L415.565 108.177ZM415.1 171.998L405.983 171.932L406.049 162.815L415.167 162.881L415.1 171.998ZM415.034 181.116L405.917 181.05L405.983 171.932L415.1 171.998L415.034 181.116ZM414.901 199.351L405.784 199.284L405.85 190.167L414.968 190.233L414.901 199.351ZM405.784 199.284L396.666 199.218L396.733 190.101L405.85 190.167L405.784 199.284ZM387.483 208.269L378.365 208.203L378.432 199.085L387.549 199.152L387.483 208.269ZM378.365 208.203L369.248 208.136L369.314 199.019L378.432 199.085L378.365 208.203ZM369.248 208.136L360.13 208.07L360.197 198.952L369.314 199.019L369.248 208.136ZM360.13 208.07L351.013 208.003L351.079 198.886L360.197 198.952L360.13 208.07ZM360.197 198.952L351.079 198.886L351.146 189.769L360.263 189.835L360.197 198.952ZM369.314 199.019L360.197 198.952L360.263 189.835L369.381 189.901L369.314 199.019ZM378.432 199.085L369.314 199.019L369.381 189.901L378.498 189.968L378.432 199.085ZM387.549 199.152L378.432 199.085L378.498 189.968L387.615 190.034L387.549 199.152ZM423.952 208.534L414.835 208.468L414.901 199.351L424.019 199.417L423.952 208.534ZM424.682 108.243L415.565 108.177L415.631 99.0592L424.749 99.1256L424.682 108.243ZM424.085 190.3L414.968 190.233L415.034 181.116L424.151 181.182L424.085 190.3ZM433.269 181.249L424.151 181.182L424.218 172.065L433.335 172.131L433.269 181.249ZM433.335 172.131L424.218 172.065L424.284 162.947L433.402 163.014L433.335 172.131ZM433.733 117.427L424.616 117.36L424.682 108.243L433.8 108.309L433.733 117.427ZM424.616 117.36L415.499 117.294L415.565 108.177L424.682 108.243L424.616 117.36ZM415.499 117.294L406.381 117.228L406.448 108.11L415.565 108.177L415.499 117.294ZM406.381 117.228L397.264 117.161L397.33 108.044L406.448 108.11L406.381 117.228ZM415.167 162.881L406.049 162.815L406.116 153.697L415.233 153.764L415.167 162.881ZM424.284 162.947L415.167 162.881L415.233 153.764L424.351 153.83L424.284 162.947ZM433.402 163.014L424.284 162.947L424.351 153.83L433.468 153.896L433.402 163.014ZM433.468 153.896L424.351 153.83L424.417 144.713L433.534 144.779L433.468 153.896ZM433.534 144.779L424.417 144.713L424.483 135.595L433.601 135.662L433.534 144.779ZM433.601 135.662L424.483 135.595L424.55 126.478L433.667 126.544L433.601 135.662ZM424.483 135.595L415.366 135.529L415.432 126.411L424.55 126.478L424.483 135.595ZM424.55 126.478L415.432 126.411L415.499 117.294L424.616 117.36L424.55 126.478ZM415.432 126.411L406.315 126.345L406.381 117.228L415.499 117.294L415.432 126.411ZM433.667 126.544L424.55 126.478L424.616 117.36L433.733 117.427L433.667 126.544ZM406.315 126.345L397.197 126.279L397.264 117.161L406.381 117.228L406.315 126.345ZM406.248 135.462L397.131 135.396L397.197 126.279L406.315 126.345L406.248 135.462ZM406.182 144.58L397.065 144.514L397.131 135.396L406.248 135.462L406.182 144.58ZM406.116 153.697L396.998 153.631L397.065 144.514L406.182 144.58L406.116 153.697ZM415.233 153.764L406.116 153.697L406.182 144.58L415.3 144.646L415.233 153.764ZM424.351 153.83L415.233 153.764L415.3 144.646L424.417 144.713L424.351 153.83ZM424.417 144.713L415.3 144.646L415.366 135.529L424.483 135.595L424.417 144.713ZM415.366 135.529L406.248 135.462L406.315 126.345L415.432 126.411L415.366 135.529ZM415.3 144.646L406.182 144.58L406.248 135.462L415.366 135.529L415.3 144.646ZM342.759 89.4109L333.641 89.3445L333.707 80.2271L342.825 80.2935L342.759 89.4109ZM333.641 89.3445L324.524 89.2781L324.59 80.1607L333.707 80.2271L333.641 89.3445ZM324.524 89.2781L315.406 89.2117L315.473 80.0943L324.59 80.1607L324.524 89.2781ZM324.457 98.3955L315.34 98.3291L315.406 89.2117L324.524 89.2781L324.457 98.3955ZM324.391 107.513L315.274 107.447L315.34 98.3291L324.457 98.3955L324.391 107.513ZM461.719 35.5695L470.836 35.6359L470.77 44.7533L461.652 44.6869L461.719 35.5695ZM470.836 35.6359L479.953 35.7023L479.887 44.8197L470.77 44.7533L470.836 35.6359ZM479.953 35.7023L489.071 35.7686L489.004 44.886L479.887 44.8197L479.953 35.7023ZM489.071 35.7686L498.188 35.835L498.122 44.9524L489.004 44.886L489.071 35.7686ZM489.004 44.886L498.122 44.9524L498.056 54.0698L488.938 54.0034L489.004 44.886ZM488.938 54.0034L498.056 54.0698L497.989 63.1872L488.872 63.1208L488.938 54.0034ZM479.821 53.9371L488.938 54.0034L488.872 63.1208L479.754 63.0545L479.821 53.9371ZM470.703 53.8707L479.821 53.9371L479.754 63.0545L470.637 62.9881L470.703 53.8707ZM470.77 44.7533L479.887 44.8197L479.821 53.9371L470.703 53.8707L470.77 44.7533ZM461.652 44.6869L470.77 44.7533L470.703 53.8707L461.586 53.8043L461.652 44.6869ZM479.887 44.8197L489.004 44.886L488.938 54.0034L479.821 53.9371L479.887 44.8197ZM461.586 53.8043L470.703 53.8707L470.637 62.9881L461.52 62.9217L461.586 53.8043ZM461.52 62.9217L470.637 62.9881L470.571 72.1055L461.453 72.0391L461.52 62.9217ZM461.453 72.0391L470.571 72.1055L470.504 81.2229L461.387 81.1565L461.453 72.0391ZM470.571 72.1055L479.688 72.1719L479.622 81.2893L470.504 81.2229L470.571 72.1055ZM479.688 72.1719L488.805 72.2383L488.739 81.3557L479.622 81.2893L479.688 72.1719ZM488.805 72.2383L497.923 72.3046L497.856 81.422L488.739 81.3557L488.805 72.2383ZM488.872 63.1208L497.989 63.1872L497.923 72.3046L488.805 72.2383L488.872 63.1208ZM479.754 63.0545L488.872 63.1208L488.805 72.2383L479.688 72.1719L479.754 63.0545ZM470.637 62.9881L479.754 63.0545L479.688 72.1719L470.571 72.1055L470.637 62.9881ZM461.387 81.1565L470.504 81.2229L470.438 90.3403L461.32 90.274L461.387 81.1565ZM470.504 81.2229L479.622 81.2893L479.555 90.4067L470.438 90.3403L470.504 81.2229ZM479.622 81.2893L488.739 81.3557L488.673 90.4731L479.555 90.4067L479.622 81.2893ZM461.254 99.3914L470.371 99.4577L470.305 108.575L461.188 108.509L461.254 99.3914ZM461.32 90.274L470.438 90.3403L470.371 99.4577L461.254 99.3914L461.32 90.274ZM478.692 208.933L487.81 208.999L487.743 218.117L478.626 218.05L478.692 208.933ZM469.575 208.867L478.692 208.933L478.626 218.05L469.509 217.984L469.575 208.867ZM460.524 199.683L469.641 199.749L469.575 208.867L460.458 208.8L460.524 199.683ZM460.59 190.565L469.708 190.632L469.641 199.749L460.524 199.683L460.59 190.565ZM460.458 208.8L469.575 208.867L469.509 217.984L460.391 217.918L460.458 208.8ZM506.974 81.4884L516.091 81.5548L516.025 90.6722L506.907 90.6058L506.974 81.4884ZM488.739 81.3557L497.856 81.422L497.79 90.5394L488.673 90.4731L488.739 81.3557ZM516.091 81.5548L525.209 81.6212L525.142 90.7386L516.025 90.6722L516.091 81.5548ZM525.209 81.6212L534.326 81.6875L534.26 90.8049L525.142 90.7386L525.209 81.6212ZM534.326 81.6875L543.443 81.7539L543.377 90.8713L534.26 90.8049L534.326 81.6875ZM543.443 81.7539L552.561 81.8203L552.494 90.9377L543.377 90.8713L543.443 81.7539ZM552.494 90.9377L561.612 91.004L561.545 100.121L552.428 100.055L552.494 90.9377ZM543.377 90.8713L552.494 90.9377L552.428 100.055L543.311 99.9887L543.377 90.8713ZM543.311 99.9887L552.428 100.055L552.362 109.172L543.244 109.106L543.311 99.9887ZM561.612 91.004L570.729 91.0704L570.663 100.188L561.545 100.121L561.612 91.004ZM561.545 100.121L570.663 100.188L570.597 109.305L561.479 109.239L561.545 100.121ZM552.428 100.055L561.545 100.121L561.479 109.239L552.362 109.172L552.428 100.055ZM543.244 109.106L552.362 109.172L552.295 118.29L543.178 118.224L543.244 109.106ZM534.127 109.04L543.244 109.106L543.178 118.224L534.061 118.157L534.127 109.04ZM552.362 109.172L561.479 109.239L561.413 118.356L552.295 118.29L552.362 109.172ZM561.479 109.239L570.597 109.305L570.53 118.423L561.413 118.356L561.479 109.239ZM570.597 109.305L579.714 109.372L579.648 118.489L570.53 118.423L570.597 109.305ZM570.53 118.423L579.648 118.489L579.581 127.606L570.464 127.54L570.53 118.423ZM570.464 127.54L579.581 127.606L579.515 136.724L570.397 136.657L570.464 127.54ZM570.397 136.657L579.515 136.724L579.448 145.841L570.331 145.775L570.397 136.657ZM570.331 145.775L579.448 145.841L579.382 154.959L570.265 154.892L570.331 145.775ZM570.265 154.892L579.382 154.959L579.316 164.076L570.198 164.01L570.265 154.892ZM570.198 164.01L579.316 164.076L579.249 173.193L570.132 173.127L570.198 164.01ZM570.132 173.127L579.249 173.193L579.183 182.311L570.066 182.244L570.132 173.127ZM570.066 182.244L579.183 182.311L579.117 191.428L569.999 191.362L570.066 182.244ZM560.948 182.178L570.066 182.244L569.999 191.362L560.882 191.295L560.948 182.178ZM560.882 191.295L569.999 191.362L569.933 200.479L560.815 200.413L560.882 191.295ZM560.815 200.413L569.933 200.479L569.866 209.597L560.749 209.53L560.815 200.413ZM551.698 200.347L560.815 200.413L560.749 209.53L551.632 209.464L551.698 200.347ZM542.581 200.28L551.698 200.347L551.632 209.464L542.514 209.398L542.581 200.28ZM533.53 191.096L542.647 191.163L542.581 200.28L533.463 200.214L533.53 191.096ZM533.596 181.979L542.713 182.045L542.647 191.163L533.53 191.096L533.596 181.979ZM542.713 182.045L551.831 182.112L551.764 191.229L542.647 191.163L542.713 182.045ZM542.647 191.163L551.764 191.229L551.698 200.347L542.581 200.28L542.647 191.163ZM551.764 191.229L560.882 191.295L560.815 200.413L551.698 200.347L551.764 191.229ZM551.831 182.112L560.948 182.178L560.882 191.295L551.764 191.229L551.831 182.112ZM551.897 172.994L561.015 173.061L560.948 182.178L551.831 182.112L551.897 172.994ZM542.78 172.928L551.897 172.994L551.831 182.112L542.713 182.045L542.78 172.928ZM542.846 163.811L551.963 163.877L551.897 172.994L542.78 172.928L542.846 163.811ZM542.912 154.693L552.03 154.76L551.963 163.877L542.846 163.811L542.912 154.693ZM542.979 145.576L552.096 145.642L552.03 154.76L542.912 154.693L542.979 145.576ZM543.045 136.458L552.163 136.525L552.096 145.642L542.979 145.576L543.045 136.458ZM543.112 127.341L552.229 127.407L552.163 136.525L543.045 136.458L543.112 127.341ZM543.178 118.224L552.295 118.29L552.229 127.407L543.112 127.341L543.178 118.224ZM552.295 118.29L561.413 118.356L561.346 127.474L552.229 127.407L552.295 118.29ZM552.229 127.407L561.346 127.474L561.28 136.591L552.163 136.525L552.229 127.407ZM552.163 136.525L561.28 136.591L561.214 145.708L552.096 145.642L552.163 136.525ZM552.096 145.642L561.214 145.708L561.147 154.826L552.03 154.76L552.096 145.642ZM552.03 154.76L561.147 154.826L561.081 163.943L551.963 163.877L552.03 154.76ZM551.963 163.877L561.081 163.943L561.015 173.061L551.897 172.994L551.963 163.877ZM561.015 173.061L570.132 173.127L570.066 182.244L560.948 182.178L561.015 173.061ZM561.081 163.943L570.198 164.01L570.132 173.127L561.015 173.061L561.081 163.943ZM561.147 154.826L570.265 154.892L570.198 164.01L561.081 163.943L561.147 154.826ZM561.214 145.708L570.331 145.775L570.265 154.892L561.147 154.826L561.214 145.708ZM561.28 136.591L570.397 136.657L570.331 145.775L561.214 145.708L561.28 136.591ZM561.346 127.474L570.464 127.54L570.397 136.657L561.28 136.591L561.346 127.474ZM561.413 118.356L570.53 118.423L570.464 127.54L561.346 127.474L561.413 118.356ZM533.463 200.214L542.581 200.28L542.514 209.398L533.397 209.331L533.463 200.214ZM533.397 209.331L542.514 209.398L542.448 218.515L533.33 218.449L533.397 209.331ZM542.514 209.398L551.632 209.464L551.565 218.581L542.448 218.515L542.514 209.398ZM524.279 209.265L533.397 209.331L533.33 218.449L524.213 218.382L524.279 209.265ZM515.162 209.198L524.279 209.265L524.213 218.382L515.096 218.316L515.162 209.198ZM506.045 209.132L515.162 209.198L515.096 218.316L505.978 218.249L506.045 209.132ZM496.927 209.066L506.045 209.132L505.978 218.249L496.861 218.183L496.927 209.066ZM487.81 208.999L496.927 209.066L496.861 218.183L487.743 218.117L487.81 208.999ZM487.876 199.882L496.994 199.948L496.927 209.066L487.81 208.999L487.876 199.882ZM478.759 199.816L487.876 199.882L487.81 208.999L478.692 208.933L478.759 199.816ZM469.641 199.749L478.759 199.816L478.692 208.933L469.575 208.867L469.641 199.749ZM470.172 126.81L479.29 126.876L479.223 135.994L470.106 135.927L470.172 126.81ZM470.239 117.693L479.356 117.759L479.29 126.876L470.172 126.81L470.239 117.693ZM461.188 108.509L470.305 108.575L470.239 117.693L461.121 117.626L461.188 108.509ZM470.371 99.4577L479.489 99.5241L479.422 108.642L470.305 108.575L470.371 99.4577ZM479.555 90.4067L488.673 90.4731L488.606 99.5905L479.489 99.5241L479.555 90.4067ZM488.673 90.4731L497.79 90.5394L497.724 99.6568L488.606 99.5905L488.673 90.4731ZM497.79 90.5394L506.907 90.6058L506.841 99.7232L497.724 99.6568L497.79 90.5394ZM497.724 99.6568L506.841 99.7232L506.775 108.841L497.657 108.774L497.724 99.6568ZM497.657 108.774L506.775 108.841L506.708 117.958L497.591 117.892L497.657 108.774ZM488.54 108.708L497.657 108.774L497.591 117.892L488.473 117.825L488.54 108.708ZM479.422 108.642L488.54 108.708L488.473 117.825L479.356 117.759L479.422 108.642ZM488.473 117.825L497.591 117.892L497.525 127.009L488.407 126.943L488.473 117.825ZM488.407 126.943L497.525 127.009L497.458 136.126L488.341 136.06L488.407 126.943ZM488.341 136.06L497.458 136.126L497.392 145.244L488.274 145.177L488.341 136.06ZM497.06 190.831L506.177 190.897L506.111 200.015L496.994 199.948L497.06 190.831ZM506.177 190.897L515.295 190.964L515.228 200.081L506.111 200.015L506.177 190.897ZM515.295 190.964L524.412 191.03L524.346 200.147L515.228 200.081L515.295 190.964ZM524.412 191.03L533.53 191.096L533.463 200.214L524.346 200.147L524.412 191.03ZM524.346 200.147L533.463 200.214L533.397 209.331L524.279 209.265L524.346 200.147ZM515.228 200.081L524.346 200.147L524.279 209.265L515.162 209.198L515.228 200.081ZM506.111 200.015L515.228 200.081L515.162 209.198L506.045 209.132L506.111 200.015ZM496.994 199.948L506.111 200.015L506.045 209.132L496.927 209.066L496.994 199.948ZM487.943 190.765L497.06 190.831L496.994 199.948L487.876 199.882L487.943 190.765ZM478.825 190.698L487.943 190.765L487.876 199.882L478.759 199.816L478.825 190.698ZM479.29 126.876L488.407 126.943L488.341 136.06L479.223 135.994L479.29 126.876ZM479.356 117.759L488.473 117.825L488.407 126.943L479.29 126.876L479.356 117.759ZM479.489 99.5241L488.606 99.5905L488.54 108.708L479.422 108.642L479.489 99.5241ZM488.606 99.5905L497.724 99.6568L497.657 108.774L488.54 108.708L488.606 99.5905ZM506.907 90.6058L516.025 90.6722L515.958 99.7896L506.841 99.7232L506.907 90.6058ZM516.025 90.6722L525.142 90.7386L525.076 99.856L515.958 99.7896L516.025 90.6722ZM525.142 90.7386L534.26 90.8049L534.193 99.9223L525.076 99.856L525.142 90.7386ZM534.26 90.8049L543.377 90.8713L543.311 99.9887L534.193 99.9223L534.26 90.8049ZM534.193 99.9223L543.311 99.9887L543.244 109.106L534.127 109.04L534.193 99.9223ZM525.076 99.856L534.193 99.9223L534.127 109.04L525.009 108.973L525.076 99.856ZM515.958 99.7896L525.076 99.856L525.009 108.973L515.892 108.907L515.958 99.7896ZM506.841 99.7232L515.958 99.7896L515.892 108.907L506.775 108.841L506.841 99.7232ZM470.438 90.3403L479.555 90.4067L479.489 99.5241L470.371 99.4577L470.438 90.3403ZM469.708 190.632L478.825 190.698L478.759 199.816L469.641 199.749L469.708 190.632ZM470.305 108.575L479.422 108.642L479.356 117.759L470.239 117.693L470.305 108.575ZM461.121 117.626L470.239 117.693L470.172 126.81L461.055 126.744L461.121 117.626ZM461.055 126.744L470.172 126.81L470.106 135.927L460.989 135.861L461.055 126.744ZM460.657 181.448L469.774 181.514L469.708 190.632L460.59 190.565L460.657 181.448ZM469.774 181.514L478.891 181.581L478.825 190.698L469.708 190.632L469.774 181.514ZM478.891 181.581L488.009 181.647L487.943 190.765L478.825 190.698L478.891 181.581ZM488.009 181.647L497.126 181.713L497.06 190.831L487.943 190.765L488.009 181.647ZM479.223 135.994L488.341 136.06L488.274 145.177L479.157 145.111L479.223 135.994ZM470.106 135.927L479.223 135.994L479.157 145.111L470.04 145.045L470.106 135.927ZM460.989 135.861L470.106 135.927L470.04 145.045L460.922 144.978L460.989 135.861ZM460.922 144.978L470.04 145.045L469.973 154.162L460.856 154.096L460.922 144.978ZM460.856 154.096L469.973 154.162L469.907 163.28L460.789 163.213L460.856 154.096ZM460.789 163.213L469.907 163.28L469.84 172.397L460.723 172.331L460.789 163.213ZM469.907 163.28L479.024 163.346L478.958 172.463L469.84 172.397L469.907 163.28ZM469.84 172.397L478.958 172.463L478.891 181.581L469.774 181.514L469.84 172.397ZM478.958 172.463L488.075 172.53L488.009 181.647L478.891 181.581L478.958 172.463ZM460.723 172.331L469.84 172.397L469.774 181.514L460.657 181.448L460.723 172.331ZM488.075 172.53L497.193 172.596L497.126 181.713L488.009 181.647L488.075 172.53ZM488.142 163.412L497.259 163.479L497.193 172.596L488.075 172.53L488.142 163.412ZM488.208 154.295L497.325 154.361L497.259 163.479L488.142 163.412L488.208 154.295ZM488.274 145.177L497.392 145.244L497.325 154.361L488.208 154.295L488.274 145.177ZM479.157 145.111L488.274 145.177L488.208 154.295L479.091 154.229L479.157 145.111ZM470.04 145.045L479.157 145.111L479.091 154.229L469.973 154.162L470.04 145.045ZM469.973 154.162L479.091 154.229L479.024 163.346L469.907 163.28L469.973 154.162ZM479.024 163.346L488.142 163.412L488.075 172.53L478.958 172.463L479.024 163.346ZM479.091 154.229L488.208 154.295L488.142 163.412L479.024 163.346L479.091 154.229ZM607.633 36.6317L616.75 36.6981L616.684 45.8155L607.566 45.7491L607.633 36.6317ZM607.566 45.7491L616.684 45.8155L616.617 54.9329L607.5 54.8665L607.566 45.7491ZM607.5 54.8665L616.617 54.9329L616.551 64.0503L607.434 63.9839L607.5 54.8665ZM607.434 63.9839L616.551 64.0503L616.485 73.1677L607.367 73.1014L607.434 63.9839ZM616.485 73.1677L625.602 73.2341L625.536 82.3515L616.418 82.2851L616.485 73.1677ZM616.418 82.2851L625.536 82.3515L625.469 91.4689L616.352 91.4025L616.418 82.2851ZM616.352 91.4025L625.469 91.4689L625.403 100.586L616.286 100.52L616.352 91.4025ZM616.286 100.52L625.403 100.586L625.337 109.704L616.219 109.637L616.286 100.52ZM616.219 109.637L625.337 109.704L625.27 118.821L616.153 118.755L616.219 109.637ZM616.153 118.755L625.27 118.821L625.204 127.939L616.086 127.872L616.153 118.755ZM616.086 127.872L625.204 127.939L625.137 137.056L616.02 136.99L616.086 127.872ZM606.969 127.806L616.086 127.872L616.02 136.99L606.903 136.923L606.969 127.806ZM607.035 118.688L616.153 118.755L616.086 127.872L606.969 127.806L607.035 118.688ZM607.102 109.571L616.219 109.637L616.153 118.755L607.035 118.688L607.102 109.571ZM607.168 100.454L616.286 100.52L616.219 109.637L607.102 109.571L607.168 100.454ZM607.234 91.3362L616.352 91.4025L616.286 100.52L607.168 100.454L607.234 91.3362ZM607.301 82.2188L616.418 82.2851L616.352 91.4025L607.234 91.3362L607.301 82.2188ZM607.367 73.1014L616.485 73.1677L616.418 82.2851L607.301 82.2188L607.367 73.1014ZM606.571 182.51L615.688 182.577L615.622 191.694L606.504 191.628L606.571 182.51ZM606.637 173.393L615.755 173.459L615.688 182.577L606.571 182.51L606.637 173.393ZM606.704 164.275L615.821 164.342L615.755 173.459L606.637 173.393L606.704 164.275ZM606.77 155.158L615.887 155.224L615.821 164.342L606.704 164.275L606.77 155.158ZM615.954 146.107L625.071 146.173L625.005 155.291L615.887 155.224L615.954 146.107ZM616.02 136.99L625.137 137.056L625.071 146.173L615.954 146.107L616.02 136.99ZM606.903 136.923L616.02 136.99L615.954 146.107L606.836 146.041L606.903 136.923ZM606.836 146.041L615.954 146.107L615.887 155.224L606.77 155.158L606.836 146.041ZM606.504 191.628L615.622 191.694L615.555 200.811L606.438 200.745L606.504 191.628ZM606.438 200.745L615.555 200.811L615.489 209.929L606.372 209.862L606.438 200.745ZM606.372 209.862L615.489 209.929L615.423 219.046L606.305 218.98L606.372 209.862ZM616.75 36.6981L625.868 36.7645L625.801 45.8819L616.684 45.8155L616.75 36.6981ZM625.868 36.7645L634.985 36.8309L634.919 45.9482L625.801 45.8819L625.868 36.7645ZM634.985 36.8309L644.102 36.8972L644.036 46.0146L634.919 45.9482L634.985 36.8309ZM634.919 45.9482L644.036 46.0146L643.97 55.132L634.852 55.0657L634.919 45.9482ZM634.852 55.0657L643.97 55.132L643.903 64.2494L634.786 64.1831L634.852 55.0657ZM634.786 64.1831L643.903 64.2494L643.837 73.3668L634.719 73.3005L634.786 64.1831ZM634.719 73.3005L643.837 73.3668L643.77 82.4842L634.653 82.4179L634.719 73.3005ZM634.587 91.5353L643.704 91.6017L643.638 100.719L634.52 100.653L634.587 91.5353ZM634.52 100.653L643.638 100.719L643.571 109.836L634.454 109.77L634.52 100.653ZM634.454 109.77L643.571 109.836L643.505 118.954L634.388 118.887L634.454 109.77ZM634.388 118.887L643.505 118.954L643.439 128.071L634.321 128.005L634.388 118.887ZM634.321 128.005L643.439 128.071L643.372 137.189L634.255 137.122L634.321 128.005ZM634.255 137.122L643.372 137.189L643.306 146.306L634.188 146.24L634.255 137.122ZM634.188 146.24L643.306 146.306L643.24 155.423L634.122 155.357L634.188 146.24ZM634.122 155.357L643.24 155.423L643.173 164.541L634.056 164.475L634.122 155.357ZM634.056 164.475L643.173 164.541L643.107 173.658L633.989 173.592L634.056 164.475ZM634.653 82.4179L643.77 82.4842L643.704 91.6017L634.587 91.5353L634.653 82.4179ZM633.989 173.592L643.107 173.658L643.04 182.776L633.923 182.709L633.989 173.592ZM633.923 182.709L643.04 182.776L642.974 191.893L633.857 191.827L633.923 182.709ZM633.857 191.827L642.974 191.893L642.908 201.011L633.79 200.944L633.857 191.827ZM633.79 200.944L642.908 201.011L642.841 210.128L633.724 210.062L633.79 200.944ZM633.724 210.062L642.841 210.128L642.775 219.245L633.658 219.179L633.724 210.062ZM624.606 209.995L633.724 210.062L633.658 219.179L624.54 219.113L624.606 209.995ZM615.489 209.929L624.606 209.995L624.54 219.113L615.423 219.046L615.489 209.929ZM615.555 200.811L624.673 200.878L624.606 209.995L615.489 209.929L615.555 200.811ZM624.673 200.878L633.79 200.944L633.724 210.062L624.606 209.995L624.673 200.878ZM624.739 191.76L633.857 191.827L633.79 200.944L624.673 200.878L624.739 191.76ZM615.688 182.577L624.806 182.643L624.739 191.76L615.622 191.694L615.688 182.577ZM615.755 173.459L624.872 173.526L624.806 182.643L615.688 182.577L615.755 173.459ZM615.821 164.342L624.938 164.408L624.872 173.526L615.755 173.459L615.821 164.342ZM624.938 164.408L634.056 164.475L633.989 173.592L624.872 173.526L624.938 164.408ZM624.872 173.526L633.989 173.592L633.923 182.709L624.806 182.643L624.872 173.526ZM624.806 182.643L633.923 182.709L633.857 191.827L624.739 191.76L624.806 182.643ZM615.622 191.694L624.739 191.76L624.673 200.878L615.555 200.811L615.622 191.694ZM625.005 155.291L634.122 155.357L634.056 164.475L624.938 164.408L625.005 155.291ZM625.071 146.173L634.188 146.24L634.122 155.357L625.005 155.291L625.071 146.173ZM625.137 137.056L634.255 137.122L634.188 146.24L625.071 146.173L625.137 137.056ZM615.887 155.224L625.005 155.291L624.938 164.408L615.821 164.342L615.887 155.224ZM625.204 127.939L634.321 128.005L634.255 137.122L625.137 137.056L625.204 127.939ZM625.27 118.821L634.388 118.887L634.321 128.005L625.204 127.939L625.27 118.821ZM625.337 109.704L634.454 109.77L634.388 118.887L625.27 118.821L625.337 109.704ZM625.403 100.586L634.52 100.653L634.454 109.77L625.337 109.704L625.403 100.586ZM625.469 91.4689L634.587 91.5353L634.52 100.653L625.403 100.586L625.469 91.4689ZM625.536 82.3515L634.653 82.4179L634.587 91.5353L625.469 91.4689L625.536 82.3515ZM625.602 73.2341L634.719 73.3005L634.653 82.4179L625.536 82.3515L625.602 73.2341ZM625.668 64.1167L634.786 64.1831L634.719 73.3005L625.602 73.2341L625.668 64.1167ZM625.735 54.9993L634.852 55.0657L634.786 64.1831L625.668 64.1167L625.735 54.9993ZM625.801 45.8819L634.919 45.9482L634.852 55.0657L625.735 54.9993L625.801 45.8819ZM616.684 45.8155L625.801 45.8819L625.735 54.9993L616.617 54.9329L616.684 45.8155ZM616.617 54.9329L625.735 54.9993L625.668 64.1167L616.551 64.0503L616.617 54.9329ZM616.551 64.0503L625.668 64.1167L625.602 73.2341L616.485 73.1677L616.551 64.0503ZM743.12 219.976L734.002 219.909L734.069 210.792L743.186 210.858L743.12 219.976ZM761.355 220.109L752.237 220.042L752.304 210.925L761.421 210.991L761.355 220.109ZM734.002 219.909L724.885 219.843L724.951 210.726L734.069 210.792L734.002 219.909ZM724.885 219.843L715.768 219.777L715.834 210.659L724.951 210.726L724.885 219.843ZM715.768 219.777L706.65 219.71L706.717 210.593L715.834 210.659L715.768 219.777ZM706.65 219.71L697.533 219.644L697.599 210.527L706.717 210.593L706.65 219.71ZM697.599 210.527L688.482 210.46L688.548 201.343L697.666 201.409L697.599 210.527ZM706.717 210.593L697.599 210.527L697.666 201.409L706.783 201.476L706.717 210.593ZM706.783 201.476L697.666 201.409L697.732 192.292L706.849 192.358L706.783 201.476ZM688.482 210.46L679.364 210.394L679.431 201.276L688.548 201.343L688.482 210.46ZM688.548 201.343L679.431 201.276L679.497 192.159L688.614 192.225L688.548 201.343ZM697.666 201.409L688.548 201.343L688.614 192.225L697.732 192.292L697.666 201.409ZM706.849 192.358L697.732 192.292L697.798 183.174L706.916 183.241L706.849 192.358ZM715.967 192.424L706.849 192.358L706.916 183.241L716.033 183.307L715.967 192.424ZM697.732 192.292L688.614 192.225L688.681 183.108L697.798 183.174L697.732 192.292ZM688.614 192.225L679.497 192.159L679.563 183.042L688.681 183.108L688.614 192.225ZM679.497 192.159L670.38 192.093L670.446 182.975L679.563 183.042L679.497 192.159ZM679.563 183.042L670.446 182.975L670.512 173.858L679.63 173.924L679.563 183.042ZM679.962 128.337L670.844 128.271L670.911 119.153L680.028 119.22L679.962 128.337ZM680.028 119.22L670.911 119.153L670.977 110.036L680.094 110.102L680.028 119.22ZM689.145 119.286L680.028 119.22L680.094 110.102L689.212 110.169L689.145 119.286ZM689.212 110.169L680.094 110.102L680.161 100.985L689.278 101.051L689.212 110.169ZM689.278 101.051L680.161 100.985L680.227 91.8675L689.345 91.9339L689.278 101.051ZM698.396 101.118L689.278 101.051L689.345 91.9339L698.462 92.0003L698.396 101.118ZM707.513 101.184L698.396 101.118L698.462 92.0003L707.579 92.0666L707.513 101.184ZM716.564 110.368L707.447 110.301L707.513 101.184L716.63 101.25L716.564 110.368ZM716.498 119.485L707.38 119.419L707.447 110.301L716.564 110.368L716.498 119.485ZM707.38 119.419L698.263 119.352L698.329 110.235L707.447 110.301L707.38 119.419ZM707.447 110.301L698.329 110.235L698.396 101.118L707.513 101.184L707.447 110.301ZM698.329 110.235L689.212 110.169L689.278 101.051L698.396 101.118L698.329 110.235ZM698.263 119.352L689.145 119.286L689.212 110.169L698.329 110.235L698.263 119.352ZM698.196 128.47L689.079 128.404L689.145 119.286L698.263 119.352L698.196 128.47ZM707.314 128.536L698.196 128.47L698.263 119.352L707.38 119.419L707.314 128.536ZM706.916 183.241L697.798 183.174L697.865 174.057L706.982 174.123L706.916 183.241ZM697.798 183.174L688.681 183.108L688.747 173.991L697.865 174.057L697.798 183.174ZM689.079 128.404L679.962 128.337L680.028 119.22L689.145 119.286L689.079 128.404ZM688.681 183.108L679.563 183.042L679.63 173.924L688.747 173.991L688.681 183.108ZM716.63 101.25L707.513 101.184L707.579 92.0666L716.697 92.133L716.63 101.25ZM716.697 92.133L707.579 92.0666L707.646 82.9492L716.763 83.0156L716.697 92.133ZM707.579 92.0666L698.462 92.0003L698.528 82.8829L707.646 82.9492L707.579 92.0666ZM725.814 92.1994L716.697 92.133L716.763 83.0156L725.881 83.082L725.814 92.1994ZM734.932 92.2658L725.814 92.1994L725.881 83.082L734.998 83.1484L734.932 92.2658ZM744.049 92.3321L734.932 92.2658L734.998 83.1484L744.115 83.2147L744.049 92.3321ZM753.166 92.3985L744.049 92.3321L744.115 83.2147L753.233 83.2811L753.166 92.3985ZM762.284 92.4649L753.166 92.3985L753.233 83.2811L762.35 83.3475L762.284 92.4649ZM762.217 101.582L753.1 101.516L753.166 92.3985L762.284 92.4649L762.217 101.582ZM771.335 101.649L762.217 101.582L762.284 92.4649L771.401 92.5313L771.335 101.649ZM780.452 101.715L771.335 101.649L771.401 92.5313L780.519 92.5976L780.452 101.715ZM780.386 110.832L771.268 110.766L771.335 101.649L780.452 101.715L780.386 110.832ZM789.437 120.016L780.319 119.95L780.386 110.832L789.503 110.899L789.437 120.016ZM780.319 119.95L771.202 119.883L771.268 110.766L780.386 110.832L780.319 119.95ZM789.371 129.134L780.253 129.067L780.319 119.95L789.437 120.016L789.371 129.134ZM789.304 138.251L780.187 138.185L780.253 129.067L789.371 129.134L789.304 138.251ZM789.238 147.368L780.12 147.302L780.187 138.185L789.304 138.251L789.238 147.368ZM789.171 156.486L780.054 156.419L780.12 147.302L789.238 147.368L789.171 156.486ZM789.105 165.603L779.988 165.537L780.054 156.419L789.171 156.486L789.105 165.603ZM789.039 174.721L779.921 174.654L779.988 165.537L789.105 165.603L789.039 174.721ZM779.921 174.654L770.804 174.588L770.87 165.47L779.988 165.537L779.921 174.654ZM779.855 183.772L770.737 183.705L770.804 174.588L779.921 174.654L779.855 183.772ZM788.972 183.838L779.855 183.772L779.921 174.654L789.039 174.721L788.972 183.838ZM788.906 192.955L779.789 192.889L779.855 183.772L788.972 183.838L788.906 192.955ZM779.789 192.889L770.671 192.823L770.737 183.705L779.855 183.772L779.789 192.889ZM779.722 202.006L770.605 201.94L770.671 192.823L779.789 192.889L779.722 202.006ZM779.656 211.124L770.538 211.058L770.605 201.94L779.722 202.006L779.656 211.124ZM770.538 211.058L761.421 210.991L761.487 201.874L770.605 201.94L770.538 211.058ZM761.421 210.991L752.304 210.925L752.37 201.807L761.487 201.874L761.421 210.991ZM752.304 210.925L743.186 210.858L743.253 201.741L752.37 201.807L752.304 210.925ZM752.37 201.807L743.253 201.741L743.319 192.624L752.436 192.69L752.37 201.807ZM761.554 192.756L752.436 192.69L752.503 183.573L761.62 183.639L761.554 192.756ZM770.671 192.823L761.554 192.756L761.62 183.639L770.737 183.705L770.671 192.823ZM761.62 183.639L752.503 183.573L752.569 174.455L761.686 174.522L761.62 183.639ZM761.686 174.522L752.569 174.455L752.635 165.338L761.753 165.404L761.686 174.522ZM761.753 165.404L752.635 165.338L752.702 156.22L761.819 156.287L761.753 165.404ZM761.819 156.287L752.702 156.22L752.768 147.103L761.886 147.169L761.819 156.287ZM761.886 147.169L752.768 147.103L752.835 137.986L761.952 138.052L761.886 147.169ZM761.952 138.052L752.835 137.986L752.901 128.868L762.018 128.934L761.952 138.052ZM762.018 128.934L752.901 128.868L752.967 119.751L762.085 119.817L762.018 128.934ZM762.085 119.817L752.967 119.751L753.034 110.633L762.151 110.7L762.085 119.817ZM752.967 119.751L743.85 119.684L743.916 110.567L753.034 110.633L752.967 119.751ZM753.034 110.633L743.916 110.567L743.983 101.45L753.1 101.516L753.034 110.633ZM743.916 110.567L734.799 110.501L734.865 101.383L743.983 101.45L743.916 110.567ZM734.799 110.501L725.681 110.434L725.748 101.317L734.865 101.383L734.799 110.501ZM725.681 110.434L716.564 110.368L716.63 101.25L725.748 101.317L725.681 110.434ZM725.748 101.317L716.63 101.25L716.697 92.133L725.814 92.1994L725.748 101.317ZM734.865 101.383L725.748 101.317L725.814 92.1994L734.932 92.2658L734.865 101.383ZM743.983 101.45L734.865 101.383L734.932 92.2658L744.049 92.3321L743.983 101.45ZM753.1 101.516L743.983 101.45L744.049 92.3321L753.166 92.3985L753.1 101.516ZM762.151 110.7L753.034 110.633L753.1 101.516L762.217 101.582L762.151 110.7ZM771.268 110.766L762.151 110.7L762.217 101.582L771.335 101.649L771.268 110.766ZM771.202 119.883L762.085 119.817L762.151 110.7L771.268 110.766L771.202 119.883ZM771.136 129.001L762.018 128.934L762.085 119.817L771.202 119.883L771.136 129.001ZM771.069 138.118L761.952 138.052L762.018 128.934L771.136 129.001L771.069 138.118ZM780.187 138.185L771.069 138.118L771.136 129.001L780.253 129.067L780.187 138.185ZM780.253 129.067L771.136 129.001L771.202 119.883L780.319 119.95L780.253 129.067ZM780.12 147.302L771.003 147.236L771.069 138.118L780.187 138.185L780.12 147.302ZM780.054 156.419L770.937 156.353L771.003 147.236L780.12 147.302L780.054 156.419ZM779.988 165.537L770.87 165.47L770.937 156.353L780.054 156.419L779.988 165.537ZM770.87 165.47L761.753 165.404L761.819 156.287L770.937 156.353L770.87 165.47ZM770.937 156.353L761.819 156.287L761.886 147.169L771.003 147.236L770.937 156.353ZM771.003 147.236L761.886 147.169L761.952 138.052L771.069 138.118L771.003 147.236ZM770.804 174.588L761.686 174.522L761.753 165.404L770.87 165.47L770.804 174.588ZM770.737 183.705L761.62 183.639L761.686 174.522L770.804 174.588L770.737 183.705ZM770.605 201.94L761.487 201.874L761.554 192.756L770.671 192.823L770.605 201.94ZM761.487 201.874L752.37 201.807L752.436 192.69L761.554 192.756L761.487 201.874ZM743.186 210.858L734.069 210.792L734.135 201.675L743.253 201.741L743.186 210.858ZM734.069 210.792L724.951 210.726L725.018 201.608L734.135 201.675L734.069 210.792ZM724.951 210.726L715.834 210.659L715.9 201.542L725.018 201.608L724.951 210.726ZM715.834 210.659L706.717 210.593L706.783 201.476L715.9 201.542L715.834 210.659ZM715.9 201.542L706.783 201.476L706.849 192.358L715.967 192.424L715.9 201.542ZM725.018 201.608L715.9 201.542L715.967 192.424L725.084 192.491L725.018 201.608ZM734.135 201.675L725.018 201.608L725.084 192.491L734.201 192.557L734.135 201.675ZM743.253 201.741L734.135 201.675L734.201 192.557L743.319 192.624L743.253 201.741ZM688.747 173.991L679.63 173.924L679.696 164.807L688.814 164.873L688.747 173.991ZM697.865 174.057L688.747 173.991L688.814 164.873L697.931 164.94L697.865 174.057ZM706.982 174.123L697.865 174.057L697.931 164.94L707.048 165.006L706.982 174.123ZM688.814 164.873L679.696 164.807L679.763 155.689L688.88 155.756L688.814 164.873ZM697.931 164.94L688.814 164.873L688.88 155.756L697.997 155.822L697.931 164.94ZM707.048 165.006L697.931 164.94L697.997 155.822L707.115 155.888L707.048 165.006ZM716.166 165.072L707.048 165.006L707.115 155.888L716.232 155.955L716.166 165.072ZM725.283 165.139L716.166 165.072L716.232 155.955L725.35 156.021L725.283 165.139ZM734.401 165.205L725.283 165.139L725.35 156.021L734.467 156.088L734.401 165.205ZM743.518 165.271L734.401 165.205L734.467 156.088L743.584 156.154L743.518 165.271ZM752.635 165.338L743.518 165.271L743.584 156.154L752.702 156.22L752.635 165.338ZM752.702 156.22L743.584 156.154L743.651 147.037L752.768 147.103L752.702 156.22ZM743.584 156.154L734.467 156.088L734.533 146.97L743.651 147.037L743.584 156.154ZM734.467 156.088L725.35 156.021L725.416 146.904L734.533 146.97L734.467 156.088ZM725.35 156.021L716.232 155.955L716.299 146.837L725.416 146.904L725.35 156.021ZM716.232 155.955L707.115 155.888L707.181 146.771L716.299 146.837L716.232 155.955ZM707.115 155.888L697.997 155.822L698.064 146.705L707.181 146.771L707.115 155.888ZM779.789 192.889L788.906 192.955L788.84 202.073L779.722 202.006L779.789 192.889ZM779.722 202.006L788.84 202.073L788.773 211.19L779.656 211.124L779.722 202.006ZM779.656 211.124L788.773 211.19L788.707 220.308L779.589 220.241L779.656 211.124ZM770.538 211.058L779.656 211.124L779.589 220.241L770.472 220.175L770.538 211.058ZM761.421 210.991L770.538 211.058L770.472 220.175L761.355 220.109L761.421 210.991ZM707.048 165.006L716.166 165.072L716.099 174.19L706.982 174.123L707.048 165.006ZM817.422 38.1589L826.539 38.2253L826.473 47.3427L817.356 47.2763L817.422 38.1589ZM826.539 38.2253L835.657 38.2917L835.591 47.4091L826.473 47.3427L826.539 38.2253ZM835.657 38.2917L844.774 38.3581L844.708 47.4755L835.591 47.4091L835.657 38.2917ZM844.774 38.3581L853.892 38.4244L853.825 47.5418L844.708 47.4755L844.774 38.3581ZM844.708 47.4755L853.825 47.5418L853.759 56.6592L844.642 56.5929L844.708 47.4755ZM844.642 56.5929L853.759 56.6592L853.693 65.7766L844.575 65.7103L844.642 56.5929ZM835.524 56.5265L844.642 56.5929L844.575 65.7103L835.458 65.6439L835.524 56.5265ZM826.407 56.4601L835.524 56.5265L835.458 65.6439L826.34 65.5775L826.407 56.4601ZM826.473 47.3427L835.591 47.4091L835.524 56.5265L826.407 56.4601L826.473 47.3427ZM817.356 47.2763L826.473 47.3427L826.407 56.4601L817.289 56.3938L817.356 47.2763ZM835.591 47.4091L844.708 47.4755L844.642 56.5929L835.524 56.5265L835.591 47.4091ZM817.289 56.3938L826.407 56.4601L826.34 65.5775L817.223 65.5111L817.289 56.3938ZM817.223 65.5111L826.34 65.5775L826.274 74.6949L817.157 74.6286L817.223 65.5111ZM817.157 74.6286L826.274 74.6949L826.208 83.8123L817.09 83.746L817.157 74.6286ZM826.274 74.6949L835.391 74.7613L835.325 83.8787L826.208 83.8123L826.274 74.6949ZM835.391 74.7613L844.509 74.8277L844.442 83.9451L835.325 83.8787L835.391 74.7613ZM844.509 74.8277L853.626 74.894L853.56 84.0115L844.442 83.9451L844.509 74.8277ZM844.575 65.7103L853.693 65.7766L853.626 74.894L844.509 74.8277L844.575 65.7103ZM835.458 65.6439L844.575 65.7103L844.509 74.8277L835.391 74.7613L835.458 65.6439ZM826.34 65.5775L835.458 65.6439L835.391 74.7613L826.274 74.6949L826.34 65.5775ZM817.09 83.746L826.208 83.8123L826.141 92.9297L817.024 92.8634L817.09 83.746ZM826.208 83.8123L835.325 83.8787L835.259 92.9961L826.141 92.9297L826.208 83.8123ZM835.325 83.8787L844.442 83.9451L844.376 93.0625L835.259 92.9961L835.325 83.8787ZM816.957 101.981L826.075 102.047L826.009 111.165L816.891 111.098L816.957 101.981ZM817.024 92.8634L826.141 92.9297L826.075 102.047L816.957 101.981L817.024 92.8634ZM834.396 211.522L843.513 211.589L843.447 220.706L834.329 220.64L834.396 211.522ZM825.278 211.456L834.396 211.522L834.329 220.64L825.212 220.573L825.278 211.456ZM816.227 202.272L825.345 202.339L825.278 211.456L816.161 211.39L816.227 202.272ZM816.294 193.155L825.411 193.221L825.345 202.339L816.227 202.272L816.294 193.155ZM816.161 211.39L825.278 211.456L825.212 220.573L816.095 220.507L816.161 211.39ZM862.677 84.0778L871.795 84.1442L871.728 93.2616L862.611 93.1952L862.677 84.0778ZM844.442 83.9451L853.56 84.0115L853.493 93.1289L844.376 93.0625L844.442 83.9451ZM871.795 84.1442L880.912 84.2106L880.846 93.328L871.728 93.2616L871.795 84.1442ZM880.912 84.2106L890.029 84.2769L889.963 93.3943L880.846 93.328L880.912 84.2106ZM890.029 84.2769L899.147 84.3433L899.08 93.4607L889.963 93.3943L890.029 84.2769ZM899.147 84.3433L908.264 84.4097L908.198 93.5271L899.08 93.4607L899.147 84.3433ZM908.198 93.5271L917.315 93.5935L917.249 102.711L908.132 102.644L908.198 93.5271ZM899.08 93.4607L908.198 93.5271L908.132 102.644L899.014 102.578L899.08 93.4607ZM899.014 102.578L908.132 102.644L908.065 111.762L898.948 111.696L899.014 102.578ZM917.315 93.5935L926.433 93.6598L926.366 102.777L917.249 102.711L917.315 93.5935ZM917.249 102.711L926.366 102.777L926.3 111.895L917.183 111.828L917.249 102.711ZM908.132 102.644L917.249 102.711L917.183 111.828L908.065 111.762L908.132 102.644ZM898.948 111.696L908.065 111.762L907.999 120.879L898.881 120.813L898.948 111.696ZM889.83 111.629L898.948 111.696L898.881 120.813L889.764 120.747L889.83 111.629ZM908.065 111.762L917.183 111.828L917.116 120.946L907.999 120.879L908.065 111.762ZM917.183 111.828L926.3 111.895L926.234 121.012L917.116 120.946L917.183 111.828ZM926.3 111.895L935.417 111.961L935.351 121.078L926.234 121.012L926.3 111.895ZM926.234 121.012L935.351 121.078L935.285 130.196L926.167 130.129L926.234 121.012ZM926.167 130.129L935.285 130.196L935.218 139.313L926.101 139.247L926.167 130.129ZM926.101 139.247L935.218 139.313L935.152 148.431L926.034 148.364L926.101 139.247ZM926.034 148.364L935.152 148.431L935.086 157.548L925.968 157.482L926.034 148.364ZM925.968 157.482L935.086 157.548L935.019 166.665L925.902 166.599L925.968 157.482ZM925.902 166.599L935.019 166.665L934.953 175.783L925.835 175.716L925.902 166.599ZM925.835 175.716L934.953 175.783L934.886 184.9L925.769 184.834L925.835 175.716ZM925.769 184.834L934.886 184.9L934.82 194.018L925.703 193.951L925.769 184.834ZM916.652 184.768L925.769 184.834L925.703 193.951L916.585 193.885L916.652 184.768ZM916.585 193.885L925.703 193.951L925.636 203.069L916.519 203.002L916.585 193.885ZM916.519 203.002L925.636 203.069L925.57 212.186L916.452 212.12L916.519 203.002ZM907.401 202.936L916.519 203.002L916.452 212.12L907.335 212.053L907.401 202.936ZM898.284 202.87L907.401 202.936L907.335 212.053L898.218 211.987L898.284 202.87ZM889.233 193.686L898.35 193.752L898.284 202.87L889.167 202.803L889.233 193.686ZM889.299 184.568L898.417 184.635L898.35 193.752L889.233 193.686L889.299 184.568ZM898.417 184.635L907.534 184.701L907.468 193.819L898.35 193.752L898.417 184.635ZM898.35 193.752L907.468 193.819L907.401 202.936L898.284 202.87L898.35 193.752ZM907.468 193.819L916.585 193.885L916.519 203.002L907.401 202.936L907.468 193.819ZM907.534 184.701L916.652 184.768L916.585 193.885L907.468 193.819L907.534 184.701ZM907.601 175.584L916.718 175.65L916.652 184.768L907.534 184.701L907.601 175.584ZM898.483 175.517L907.601 175.584L907.534 184.701L898.417 184.635L898.483 175.517ZM898.55 166.4L907.667 166.466L907.601 175.584L898.483 175.517L898.55 166.4ZM898.616 157.283L907.733 157.349L907.667 166.466L898.55 166.4L898.616 157.283ZM898.682 148.165L907.8 148.232L907.733 157.349L898.616 157.283L898.682 148.165ZM898.749 139.048L907.866 139.114L907.8 148.232L898.682 148.165L898.749 139.048ZM898.815 129.93L907.932 129.997L907.866 139.114L898.749 139.048L898.815 129.93ZM898.881 120.813L907.999 120.879L907.932 129.997L898.815 129.93L898.881 120.813ZM907.999 120.879L917.116 120.946L917.05 130.063L907.932 129.997L907.999 120.879ZM907.932 129.997L917.05 130.063L916.983 139.18L907.866 139.114L907.932 129.997ZM907.866 139.114L916.983 139.18L916.917 148.298L907.8 148.232L907.866 139.114ZM907.8 148.232L916.917 148.298L916.851 157.415L907.733 157.349L907.8 148.232ZM907.733 157.349L916.851 157.415L916.784 166.533L907.667 166.466L907.733 157.349ZM907.667 166.466L916.784 166.533L916.718 175.65L907.601 175.584L907.667 166.466ZM916.718 175.65L925.835 175.716L925.769 184.834L916.652 184.768L916.718 175.65ZM916.784 166.533L925.902 166.599L925.835 175.716L916.718 175.65L916.784 166.533ZM916.851 157.415L925.968 157.482L925.902 166.599L916.784 166.533L916.851 157.415ZM916.917 148.298L926.034 148.364L925.968 157.482L916.851 157.415L916.917 148.298ZM916.983 139.18L926.101 139.247L926.034 148.364L916.917 148.298L916.983 139.18ZM917.05 130.063L926.167 130.129L926.101 139.247L916.983 139.18L917.05 130.063ZM917.116 120.946L926.234 121.012L926.167 130.129L917.05 130.063L917.116 120.946ZM889.167 202.803L898.284 202.87L898.218 211.987L889.1 211.921L889.167 202.803ZM889.1 211.921L898.218 211.987L898.151 221.104L889.034 221.038L889.1 211.921ZM898.218 211.987L907.335 212.053L907.269 221.171L898.151 221.104L898.218 211.987ZM879.983 211.854L889.1 211.921L889.034 221.038L879.916 220.972L879.983 211.854ZM870.865 211.788L879.983 211.854L879.916 220.972L870.799 220.905L870.865 211.788ZM861.748 211.721L870.865 211.788L870.799 220.905L861.682 220.839L861.748 211.721ZM852.631 211.655L861.748 211.721L861.682 220.839L852.564 220.773L852.631 211.655ZM843.513 211.589L852.631 211.655L852.564 220.773L843.447 220.706L843.513 211.589ZM843.58 202.471L852.697 202.538L852.631 211.655L843.513 211.589L843.58 202.471ZM834.462 202.405L843.58 202.471L843.513 211.589L834.396 211.522L834.462 202.405ZM825.345 202.339L834.462 202.405L834.396 211.522L825.278 211.456L825.345 202.339ZM825.876 129.399L834.993 129.466L834.927 138.583L825.809 138.517L825.876 129.399ZM825.942 120.282L835.06 120.348L834.993 129.466L825.876 129.399L825.942 120.282ZM816.891 111.098L826.009 111.165L825.942 120.282L816.825 120.216L816.891 111.098ZM826.075 102.047L835.192 102.114L835.126 111.231L826.009 111.165L826.075 102.047ZM835.259 92.9961L844.376 93.0625L844.31 102.18L835.192 102.114L835.259 92.9961ZM844.376 93.0625L853.493 93.1289L853.427 102.246L844.31 102.18L844.376 93.0625ZM853.493 93.1289L862.611 93.1952L862.545 102.313L853.427 102.246L853.493 93.1289ZM853.427 102.246L862.545 102.313L862.478 111.43L853.361 111.364L853.427 102.246ZM853.361 111.364L862.478 111.43L862.412 120.547L853.294 120.481L853.361 111.364ZM844.243 111.297L853.361 111.364L853.294 120.481L844.177 120.415L844.243 111.297ZM835.126 111.231L844.243 111.297L844.177 120.415L835.06 120.348L835.126 111.231ZM844.177 120.415L853.294 120.481L853.228 129.598L844.111 129.532L844.177 120.415ZM844.111 129.532L853.228 129.598L853.162 138.716L844.044 138.65L844.111 129.532ZM844.044 138.65L853.162 138.716L853.095 147.833L843.978 147.767L844.044 138.65ZM852.763 193.42L861.881 193.487L861.814 202.604L852.697 202.538L852.763 193.42ZM861.881 193.487L870.998 193.553L870.932 202.67L861.814 202.604L861.881 193.487ZM870.998 193.553L880.116 193.619L880.049 202.737L870.932 202.67L870.998 193.553ZM880.116 193.619L889.233 193.686L889.167 202.803L880.049 202.737L880.116 193.619ZM880.049 202.737L889.167 202.803L889.1 211.921L879.983 211.854L880.049 202.737ZM870.932 202.67L880.049 202.737L879.983 211.854L870.865 211.788L870.932 202.67ZM861.814 202.604L870.932 202.67L870.865 211.788L861.748 211.721L861.814 202.604ZM852.697 202.538L861.814 202.604L861.748 211.721L852.631 211.655L852.697 202.538ZM843.646 193.354L852.763 193.42L852.697 202.538L843.58 202.471L843.646 193.354ZM834.529 193.288L843.646 193.354L843.58 202.471L834.462 202.405L834.529 193.288ZM834.993 129.466L844.111 129.532L844.044 138.65L834.927 138.583L834.993 129.466ZM835.06 120.348L844.177 120.415L844.111 129.532L834.993 129.466L835.06 120.348ZM835.192 102.114L844.31 102.18L844.243 111.297L835.126 111.231L835.192 102.114ZM844.31 102.18L853.427 102.246L853.361 111.364L844.243 111.297L844.31 102.18ZM862.611 93.1952L871.728 93.2616L871.662 102.379L862.545 102.313L862.611 93.1952ZM871.728 93.2616L880.846 93.328L880.779 102.445L871.662 102.379L871.728 93.2616ZM880.846 93.328L889.963 93.3943L889.897 102.512L880.779 102.445L880.846 93.328ZM889.963 93.3943L899.08 93.4607L899.014 102.578L889.897 102.512L889.963 93.3943ZM889.897 102.512L899.014 102.578L898.948 111.696L889.83 111.629L889.897 102.512ZM880.779 102.445L889.897 102.512L889.83 111.629L880.713 111.563L880.779 102.445ZM871.662 102.379L880.779 102.445L880.713 111.563L871.596 111.496L871.662 102.379ZM862.545 102.313L871.662 102.379L871.596 111.496L862.478 111.43L862.545 102.313ZM826.141 92.9297L835.259 92.9961L835.192 102.114L826.075 102.047L826.141 92.9297ZM825.411 193.221L834.529 193.288L834.462 202.405L825.345 202.339L825.411 193.221ZM826.009 111.165L835.126 111.231L835.06 120.348L825.942 120.282L826.009 111.165ZM816.825 120.216L825.942 120.282L825.876 129.399L816.758 129.333L816.825 120.216ZM816.758 129.333L825.876 129.399L825.809 138.517L816.692 138.45L816.758 129.333ZM816.36 184.037L825.478 184.104L825.411 193.221L816.294 193.155L816.36 184.037ZM825.478 184.104L834.595 184.17L834.529 193.288L825.411 193.221L825.478 184.104ZM834.595 184.17L843.712 184.237L843.646 193.354L834.529 193.288L834.595 184.17ZM843.712 184.237L852.83 184.303L852.763 193.42L843.646 193.354L843.712 184.237ZM834.927 138.583L844.044 138.65L843.978 147.767L834.86 147.701L834.927 138.583ZM825.809 138.517L834.927 138.583L834.86 147.701L825.743 147.634L825.809 138.517ZM816.692 138.45L825.809 138.517L825.743 147.634L816.626 147.568L816.692 138.45ZM816.626 147.568L825.743 147.634L825.677 156.752L816.559 156.685L816.626 147.568ZM816.559 156.685L825.677 156.752L825.61 165.869L816.493 165.803L816.559 156.685ZM816.493 165.803L825.61 165.869L825.544 174.986L816.427 174.92L816.493 165.803ZM825.61 165.869L834.728 165.935L834.661 175.053L825.544 174.986L825.61 165.869ZM825.544 174.986L834.661 175.053L834.595 184.17L825.478 184.104L825.544 174.986ZM834.661 175.053L843.779 175.119L843.712 184.237L834.595 184.17L834.661 175.053ZM816.427 174.92L825.544 174.986L825.478 184.104L816.36 184.037L816.427 174.92ZM843.779 175.119L852.896 175.186L852.83 184.303L843.712 184.237L843.779 175.119ZM843.845 166.002L852.962 166.068L852.896 175.186L843.779 175.119L843.845 166.002ZM843.911 156.884L853.029 156.951L852.962 166.068L843.845 166.002L843.911 156.884ZM843.978 147.767L853.095 147.833L853.029 156.951L843.911 156.884L843.978 147.767ZM834.86 147.701L843.978 147.767L843.911 156.884L834.794 156.818L834.86 147.701ZM825.743 147.634L834.86 147.701L834.794 156.818L825.677 156.752L825.743 147.634ZM825.677 156.752L834.794 156.818L834.728 165.935L825.61 165.869L825.677 156.752ZM834.728 165.935L843.845 166.002L843.779 175.119L834.661 175.053L834.728 165.935ZM834.794 156.818L843.911 156.884L843.845 166.002L834.728 165.935L834.794 156.818Z" fill="url(#paint10_linear_0_1)"/>
<defs>
<linearGradient id="paint0_linear_0_1" x1="110" y1="62" x2="136" y2="62" gradientUnits="userSpaceOnUse">
<stop stop-color="#83F653"/>
<stop offset="1" stop-color="#529535"/>
</linearGradient>
<linearGradient id="paint1_linear_0_1" x1="110" y1="73" x2="136" y2="73" gradientUnits="userSpaceOnUse">
<stop stop-color="#83F653"/>
<stop offset="1" stop-color="#529535"/>
</linearGradient>
<linearGradient id="paint2_linear_0_1" x1="110" y1="84" x2="136" y2="84" gradientUnits="userSpaceOnUse">
<stop stop-color="#83F653"/>
<stop offset="1" stop-color="#529535"/>
</linearGradient>
<linearGradient id="paint3_linear_0_1" x1="60" y1="67" x2="60" y2="79" gradientUnits="userSpaceOnUse">
<stop stop-color="#81CF60"/>
<stop offset="1" stop-color="#529535"/>
</linearGradient>
<linearGradient id="paint4_linear_0_1" x1="133" y1="149" x2="133" y2="161" gradientUnits="userSpaceOnUse">
<stop stop-color="#83F653"/>
<stop offset="1" stop-color="#529535"/>
</linearGradient>
<linearGradient id="paint5_linear_0_1" x1="98.9999" y1="7" x2="98.9999" y2="227" gradientUnits="userSpaceOnUse">
<stop offset="0.288" stop-color="#57FA3E"/>
<stop offset="1" stop-color="#12700B" stop-opacity="0.81"/>
</linearGradient>
<linearGradient id="paint6_linear_0_1" x1="94.0949" y1="2.74864" x2="94.0949" y2="225.698" gradientUnits="userSpaceOnUse">
<stop stop-color="#57FA3E"/>
<stop offset="1" stop-color="#396326"/>
</linearGradient>
<linearGradient id="paint7_linear_0_1" x1="54" y1="144" x2="80" y2="144" gradientUnits="userSpaceOnUse">
<stop stop-color="#83F653"/>
<stop offset="1" stop-color="#529535"/>
</linearGradient>
<linearGradient id="paint8_linear_0_1" x1="54" y1="155" x2="80" y2="155" gradientUnits="userSpaceOnUse">
<stop stop-color="#83F653"/>
<stop offset="1" stop-color="#529535"/>
</linearGradient>
<linearGradient id="paint9_linear_0_1" x1="54" y1="166" x2="80" y2="166" gradientUnits="userSpaceOnUse">
<stop stop-color="#83F653"/>
<stop offset="1" stop-color="#529535"/>
</linearGradient>
<linearGradient id="paint10_linear_0_1" x1="467.309" y1="35.1936" x2="468.894" y2="226.239" gradientUnits="userSpaceOnUse">
<stop offset="0.263" stop-color="#57FA3E"/>
<stop offset="1" stop-color="#12700B"/>
</linearGradient>
</defs>
</svg>
